<svg width="177" height="44" viewBox="0 0 177 44" fill="none" xmlns="http://www.w3.org/2000/svg">
<g clip-path="url(#clip0_184_2964)">
<path d="M40.2543 2.69803C40.5087 2.78762 40.7303 2.95151 40.8906 3.16847C41.0509 3.38543 41.1424 3.6455 41.1533 3.91503C41.2915 5.35437 41.3504 6.80022 41.3298 8.24603C41.3145 8.9093 41.2993 9.57255 41.2552 10.2358C41.0057 10.1324 40.7699 10.0289 40.5189 9.93157C39.8861 9.68208 39.2669 9.44631 38.6326 9.2242C38.6478 8.88649 38.663 8.56245 38.663 8.22321C38.6767 7.14768 38.6478 6.05695 38.5596 4.95252C37.5282 4.6285 36.4526 4.33337 35.3649 4.06868C33.9958 3.74465 32.6267 3.47844 31.2393 3.28676C30.4589 3.18484 29.7074 3.09508 28.9863 3.02206C28.2652 2.94904 27.497 2.90492 26.7166 2.86993C26.1081 2.85472 25.5376 2.84103 24.92 2.84103L24.021 2.85472C23.7548 2.85472 23.4459 2.86993 23.1219 2.86993C22.3415 2.90036 21.59 2.95816 20.8522 3.02206C20.1144 3.08595 19.3796 3.18484 18.5992 3.28676C17.2301 3.47844 15.8442 3.74313 14.4736 4.06868C13.3829 4.33337 12.3226 4.6285 11.279 4.95252C11.0995 7.37415 11.1637 9.80769 11.4707 12.2165C11.6336 13.564 11.8697 14.9016 12.1781 16.2235C12.3545 16.975 12.5614 17.7264 12.7866 18.4475L12.8018 18.5069L12.8155 18.5662L12.8307 18.6255L12.8596 18.6833L12.8748 18.7427L12.89 18.802L12.9052 18.8613L12.963 19.0226V19.0378L12.9782 19.0956L13.0817 19.3755L13.0953 19.4348L13.1851 19.6706L13.1988 19.7147C13.6538 21.034 14.1805 22.3274 14.7764 23.5894L14.8053 23.6335L14.8205 23.6791L14.8342 23.708L14.8645 23.7521L14.8783 23.7962L14.8935 23.8404L14.9224 23.8693C15.1445 24.3256 15.3788 24.782 15.6161 25.2384C15.7926 25.5335 15.9537 25.8469 16.1165 26.1222C16.3082 26.462 16.4852 26.7566 16.6475 27.0061C17.148 27.8169 17.6774 28.6125 18.2387 29.3792C18.8 30.1459 19.372 30.8822 20.0064 31.6185C20.2427 31.8984 20.5079 32.193 20.802 32.5024C21.0819 32.8066 21.3466 33.1109 21.5976 33.371C22.2457 34.0343 22.9226 34.6686 23.6011 35.2862L23.881 35.522C23.6893 35.6742 23.4977 35.8263 23.2923 35.9784C22.7614 36.3755 22.2168 36.7588 21.6706 37.1422C18.727 34.5033 16.1945 31.4391 14.1572 28.0512V28.036L14.1419 28.0223L14.1268 28.0071C14.0097 27.8154 13.9062 27.6237 13.8027 27.4624C13.6262 27.1384 13.4346 26.8129 13.2733 26.5041C12.7865 25.6202 12.3439 24.7075 11.9179 23.7491C11.492 22.7907 11.1223 21.849 10.7831 20.9059C10.3092 19.5726 9.90595 18.2153 9.57515 16.8396C8.57428 12.6069 8.27575 8.23847 8.69137 3.90895C8.70383 3.63902 8.79764 3.37917 8.96056 3.16359C9.12347 2.948 9.34785 2.78676 9.60412 2.70107C11.0037 2.22949 12.4336 1.81723 13.8773 1.46277C15.292 1.13875 16.7494 0.854277 18.2387 0.63826C18.9993 0.534815 19.7995 0.446584 20.6393 0.373564C21.4501 0.299022 22.2457 0.241214 23.0261 0.210789C23.3212 0.210789 23.6346 0.19558 23.9692 0.19558L24.9277 0.181885L25.8845 0.19558C26.2238 0.19558 26.5478 0.210789 26.8277 0.210789C27.6233 0.241214 28.4189 0.299022 29.2297 0.373564C30.0695 0.446584 30.8651 0.534815 31.6166 0.63826C33.118 0.858841 34.5769 1.13875 35.9917 1.46277C37.4217 1.81723 38.8501 2.2234 40.2649 2.70107L40.2543 2.69803ZM31.6196 29.3808C32.1505 28.6293 32.6845 27.8595 33.1667 27.0669C33.3331 26.768 33.6062 26.5429 33.9313 26.4363C34.2563 26.3297 34.6096 26.3496 34.9207 26.4919C37.4809 27.7156 39.805 29.3816 41.7861 31.4131C42.0179 31.6268 42.167 31.9153 42.2074 32.228C42.2477 32.5406 42.1767 32.8575 42.0067 33.123C41.5945 33.7711 41.1381 34.448 40.6817 35.1113C40.2254 35.7746 39.7233 36.4226 39.238 37.0418C38.8836 37.4981 38.5002 37.9697 38.088 38.4413C37.735 38.8536 37.3365 39.31 36.8953 39.7968C36.2762 40.4752 35.6783 41.0929 35.0698 41.6968H35.0546C34.4659 42.287 33.8376 42.8621 33.1835 43.4356C32.9905 43.6236 32.7456 43.7494 32.4804 43.7968C32.2152 43.8443 31.9419 43.8112 31.6957 43.7018C29.7564 42.8116 27.8893 41.772 26.1112 40.5924C26.347 40.4159 26.5827 40.2394 26.8185 40.0478C27.319 39.6492 27.8211 39.2522 28.2911 38.8308C29.4927 39.5945 30.7377 40.2878 32.0197 40.9073C32.4167 40.5391 32.8001 40.171 33.1986 39.7876C33.8163 39.1791 34.3913 38.595 34.9222 38.0047C35.2752 37.6366 35.6433 37.1954 36.0571 36.7238C36.41 36.2963 36.7782 35.8537 37.1326 35.3836C37.6179 34.7934 38.0606 34.1894 38.488 33.5703C38.7238 33.266 38.9444 32.9222 39.165 32.5982C38.5019 31.9624 37.7925 31.3767 37.0428 30.8457C36.3328 30.3308 35.5899 29.8628 34.8188 29.4446C34.4796 29.9603 34.1266 30.4624 33.7722 30.9476C33.1545 31.8026 32.5202 32.5982 31.8722 33.3649C31.577 33.7026 31.2971 34.013 31.0324 34.3081C30.9138 34.4602 30.7814 34.588 30.6491 34.734L30.6338 34.7492L30.6202 34.7644L30.6049 34.7782L30.5897 34.7934L30.576 34.8086L30.5608 34.8238L30.5456 34.8375L30.5167 34.8679V34.8816C29.1099 36.3634 27.5985 37.7421 25.994 39.0072C23.5695 40.8689 20.9393 42.4461 18.1551 43.7079C17.902 43.8214 17.62 43.854 17.3477 43.8011C17.0754 43.7483 16.8261 43.6127 16.6338 43.4128C15.9842 42.8529 15.3803 42.2779 14.7764 41.7029C14.1679 41.1142 13.5685 40.4859 12.9509 39.8028C12.4945 39.316 12.0974 38.8597 11.7429 38.4474C11.3459 37.9758 10.9626 37.5042 10.5944 37.0478C10.1076 36.415 9.63604 35.7807 9.16445 35.1174C8.69287 34.4541 8.25171 33.7772 7.83945 33.1291C7.5139 32.6134 7.17614 32.0642 6.8369 31.4938C6.53265 30.9339 6.21775 30.3741 5.92415 29.8204C5.54231 29.113 5.18789 28.3904 4.84865 27.6694C4.50941 26.9483 4.21582 26.2242 3.90701 25.4727C3.34719 24.1035 2.86039 22.704 2.43292 21.274C2.00545 19.844 1.65252 18.4019 1.36805 16.943C1.31267 16.6743 1.34255 16.395 1.45354 16.1441C1.56454 15.8932 1.75109 15.6832 1.98717 15.5435C3.70249 14.3242 5.51013 13.2403 7.3937 12.3017C7.46672 13.0091 7.55645 13.7012 7.67358 14.3934C7.70249 14.6292 7.74661 14.865 7.79072 15.1008C6.54029 15.7548 5.33026 16.4832 4.16713 17.2823C4.40293 18.3867 4.68283 19.4622 4.99164 20.5088C5.39021 21.8643 5.86185 23.1893 6.37755 24.4641C6.65746 25.1562 6.95105 25.8484 7.27507 26.5406C7.5991 27.2328 7.92462 27.9097 8.27755 28.5593C8.55746 29.1054 8.85262 29.6242 9.14774 30.1505C9.44134 30.6373 9.75623 31.153 10.0894 31.6976C10.5032 32.3457 10.9154 32.98 11.3429 33.5687C11.7703 34.1575 12.2267 34.7858 12.6983 35.3821C13.0665 35.8522 13.4194 36.2948 13.7876 36.7223C14.1861 37.1939 14.5695 37.6351 14.9072 38.0032C15.4533 38.5934 16.0268 39.1822 16.646 39.7861C17.0293 40.1694 17.4279 40.5376 17.8097 40.892C20.0266 39.8257 22.1296 38.5372 24.0864 37.0463C26.9543 34.8715 29.4905 32.2907 31.6151 29.3853L31.6196 29.3808ZM47.8422 15.5374C48.0775 15.6786 48.2641 15.8883 48.3772 16.1383C48.4903 16.3884 48.5244 16.667 48.4751 16.9369C48.18 18.3958 47.827 19.8395 47.3995 21.2679C46.9721 22.6964 46.4868 24.0974 45.9407 25.4666C45.8853 25.6032 45.8054 25.7285 45.7048 25.8362C45.4737 26.1042 45.1464 26.2704 44.7936 26.2989C44.4409 26.3274 44.0912 26.2158 43.8201 25.9884C42.8245 25.1218 41.7709 24.3243 40.6665 23.6015C39.5814 22.8917 38.4489 22.2568 37.2771 21.7015C36.9698 21.5628 36.7254 21.3143 36.592 21.0047C36.4585 20.695 36.4458 20.3467 36.5561 20.0281C36.9968 18.7883 37.3655 17.524 37.6605 16.2417C37.7928 15.7412 37.8963 15.2392 37.9997 14.7205C38.339 14.8528 38.663 14.9867 39.0023 15.1327C39.5028 15.3548 40.0032 15.5891 40.5037 15.8264C40.4307 16.1793 40.3516 16.5186 40.2679 16.8578C40.0337 17.8451 39.7675 18.8354 39.4586 19.8045C40.3714 20.2761 41.2704 20.8055 42.139 21.3653C42.8023 21.808 43.4656 22.278 44.0999 22.7648C44.3646 22.0285 44.6156 21.2771 44.8362 20.5119C45.1602 19.4652 45.4249 18.3821 45.6759 17.2853C43.7425 15.9633 41.6847 14.8332 39.5317 13.9112C38.2056 13.338 36.8479 12.8408 35.4654 12.4219C34.202 12.0403 32.918 11.7305 31.6196 11.4939C30.7069 11.3326 29.7637 11.2003 28.8053 11.0969C27.8469 10.9934 26.9053 10.9341 25.9621 10.9052L25.4327 10.89H24.4013L23.8856 10.9052C22.9424 10.9341 21.984 10.9934 21.0408 11.0969C20.0977 11.2003 19.1408 11.3326 18.2128 11.4939C16.9304 11.7297 15.6495 12.0537 14.3671 12.4219C13.8803 12.574 13.395 12.7261 12.9082 12.8935C12.8641 12.6135 12.82 12.3488 12.7911 12.0689C12.7029 11.4361 12.639 10.8169 12.5994 10.1826C16.5746 8.86833 20.7348 8.20063 24.9216 8.20495C30.1003 8.21206 35.2287 9.22254 40.023 11.1805C42.788 12.3327 45.4128 13.7959 47.8468 15.5419L47.8422 15.5374ZM23.2954 27.1917C23.0748 26.9118 22.8831 26.6608 22.7066 26.4402C21.3047 24.5209 20.1143 22.4557 19.156 20.2806C19.0237 19.987 18.8898 19.6919 18.7727 19.3968C18.6556 19.1017 18.5658 18.8522 18.4684 18.5723C18.4263 18.475 18.3966 18.3728 18.3802 18.268C18.3488 18.0948 18.3522 17.917 18.3902 17.7451C18.4282 17.5731 18.5001 17.4105 18.6016 17.2666C18.7032 17.1228 18.8323 17.0006 18.9816 16.9071C19.1308 16.8137 19.2972 16.7509 19.4709 16.7224C19.7508 16.6631 20.0794 16.619 20.4141 16.5703L21.3709 16.4364C21.9612 16.3786 22.5499 16.3345 23.1539 16.2843C23.7578 16.2341 24.3708 16.2402 24.9231 16.2402C25.4753 16.2402 26.0716 16.2539 26.7044 16.2843C27.3129 16.3284 27.8987 16.3725 28.4737 16.4364L29.4305 16.5703C29.785 16.6144 30.0938 16.6585 30.3889 16.7224C30.4642 16.7345 30.538 16.7539 30.6095 16.7802C30.9429 16.9006 31.2152 17.1479 31.3671 17.4682C31.519 17.7885 31.5381 18.1558 31.4203 18.4901C31.3017 18.7944 31.1845 19.1077 31.0658 19.4029C30.9472 19.698 30.8301 19.9931 30.6977 20.2867C30.2191 21.3709 29.6828 22.4286 29.0913 23.4555C28.4969 24.4897 27.8427 25.4883 27.1319 26.4463C26.9108 26.7394 26.7197 26.9898 26.5584 27.1978C26.3074 27.502 26.1157 27.7576 25.9499 27.9341C25.898 27.9999 25.8382 28.0592 25.7719 28.1105C25.6381 28.2232 25.4832 28.3082 25.3162 28.3604C25.1492 28.4126 24.9736 28.4311 24.7994 28.4146C24.6252 28.3982 24.456 28.3473 24.3017 28.2647C24.1474 28.1822 24.0112 28.0698 23.9008 27.9341C23.6802 27.683 23.4886 27.4472 23.2923 27.1978L23.2954 27.1917Z" fill="#BBC3CF"/>
</g>
<path d="M62.7853 19.3339C63.7278 17.8678 65.386 17.1347 67.7598 17.1347V20.2503C67.4806 20.1979 67.2275 20.1718 67.0006 20.1718C65.7264 20.1718 64.7315 20.547 64.0158 21.2976C63.3002 22.0307 62.9424 23.0954 62.9424 24.4918V31.2729H59.6697V17.2918H62.7853V19.3339Z" fill="#BBC3CF"/>
<path d="M83.5516 24.3609C83.5516 24.5878 83.5341 24.9107 83.4992 25.3296H72.529C72.721 26.3594 73.2185 27.1798 74.0214 27.7907C74.8418 28.3841 75.8541 28.6809 77.0585 28.6809C78.5945 28.6809 79.8599 28.1747 80.8548 27.1623L82.609 29.1783C81.9807 29.9289 81.1865 30.4961 80.2265 30.8801C79.2665 31.2641 78.1843 31.4561 76.9799 31.4561C75.4439 31.4561 74.0912 31.1507 72.9218 30.5398C71.7523 29.9289 70.8447 29.0823 70.1988 28.0001C69.5705 26.9005 69.2563 25.6612 69.2563 24.2823C69.2563 22.9209 69.5618 21.699 70.1727 20.6169C70.801 19.5172 71.665 18.6619 72.7647 18.051C73.8643 17.4401 75.1036 17.1347 76.4825 17.1347C77.8439 17.1347 79.057 17.4401 80.1218 18.051C81.2039 18.6445 82.0418 19.491 82.6352 20.5907C83.2461 21.6729 83.5516 22.9296 83.5516 24.3609ZM76.4825 19.7529C75.4352 19.7529 74.545 20.067 73.8119 20.6954C73.0963 21.3063 72.6599 22.1267 72.5028 23.1565H80.4359C80.2963 22.1441 79.8687 21.3238 79.153 20.6954C78.4374 20.067 77.5472 19.7529 76.4825 19.7529Z" fill="#BBC3CF"/>
<path d="M91.0152 31.4561C89.8807 31.4561 88.7723 31.3078 87.6901 31.011C86.608 30.7143 85.744 30.339 85.0981 29.8852L86.3549 27.3979C86.9832 27.8169 87.7338 28.1572 88.6065 28.419C89.4967 28.6634 90.3694 28.7856 91.2247 28.7856C93.1796 28.7856 94.1571 28.2707 94.1571 27.2409C94.1571 26.7521 93.904 26.4118 93.3978 26.2198C92.9091 26.0278 92.1149 25.8445 91.0152 25.6699C89.8632 25.4954 88.9207 25.2947 88.1876 25.0678C87.472 24.8409 86.8436 24.4481 86.3025 23.8896C85.7789 23.3136 85.517 22.5194 85.517 21.507C85.517 20.1805 86.0669 19.1245 87.1665 18.339C88.2836 17.5361 89.7847 17.1347 91.6698 17.1347C92.6298 17.1347 93.5898 17.2481 94.5498 17.475C95.5098 17.6845 96.2952 17.9725 96.9061 18.339L95.6494 20.8263C94.4625 20.1281 93.1272 19.779 91.6436 19.779C90.6836 19.779 89.9505 19.9274 89.4443 20.2241C88.9556 20.5034 88.7112 20.8787 88.7112 21.3499C88.7112 21.8736 88.9731 22.2489 89.4967 22.4758C90.0378 22.6852 90.8669 22.8859 91.984 23.0779C93.101 23.2525 94.0174 23.4532 94.733 23.6801C95.4487 23.907 96.0596 24.291 96.5658 24.8321C97.0894 25.3732 97.3512 26.1412 97.3512 27.1361C97.3512 28.4452 96.784 29.4925 95.6494 30.2779C94.5149 31.0634 92.9701 31.4561 91.0152 31.4561Z" fill="#BBC3CF"/>
<path d="M113.313 24.3609C113.313 24.5878 113.295 24.9107 113.261 25.3296H102.29C102.482 26.3594 102.98 27.1798 103.783 27.7907C104.603 28.3841 105.615 28.6809 106.82 28.6809C108.356 28.6809 109.621 28.1747 110.616 27.1623L112.37 29.1783C111.742 29.9289 110.948 30.4961 109.988 30.8801C109.028 31.2641 107.946 31.4561 106.741 31.4561C105.205 31.4561 103.853 31.1507 102.683 30.5398C101.514 29.9289 100.606 29.0823 99.9602 28.0001C99.3318 26.9005 99.0177 25.6612 99.0177 24.2823C99.0177 22.9209 99.3231 21.699 99.934 20.6169C100.562 19.5172 101.426 18.6619 102.526 18.051C103.626 17.4401 104.865 17.1347 106.244 17.1347C107.605 17.1347 108.818 17.4401 109.883 18.051C110.965 18.6445 111.803 19.491 112.397 20.5907C113.007 21.6729 113.313 22.9296 113.313 24.3609ZM106.244 19.7529C105.197 19.7529 104.306 20.067 103.573 20.6954C102.858 21.3063 102.421 22.1267 102.264 23.1565H110.197C110.058 22.1441 109.63 21.3238 108.914 20.6954C108.199 20.067 107.309 19.7529 106.244 19.7529Z" fill="#BBC3CF"/>
<path d="M122.871 31.4561C121.422 31.4561 120.122 31.1507 118.97 30.5398C117.818 29.9289 116.919 29.0823 116.273 28.0001C115.628 26.9005 115.305 25.6612 115.305 24.2823C115.305 22.9034 115.628 21.6729 116.273 20.5907C116.919 19.5085 117.809 18.6619 118.944 18.051C120.096 17.4401 121.405 17.1347 122.871 17.1347C124.25 17.1347 125.454 17.4139 126.484 17.9725C127.532 18.531 128.317 19.3339 128.841 20.3812L126.327 21.8474C125.926 21.2016 125.42 20.7216 124.809 20.4074C124.215 20.0758 123.561 19.9099 122.845 19.9099C121.623 19.9099 120.611 20.3114 119.808 21.1143C119.005 21.8998 118.604 22.9558 118.604 24.2823C118.604 25.6089 118.996 26.6736 119.782 27.4765C120.585 28.2619 121.606 28.6547 122.845 28.6547C123.561 28.6547 124.215 28.4976 124.809 28.1834C125.42 27.8518 125.926 27.363 126.327 26.7172L128.841 28.1834C128.3 29.2307 127.505 30.0423 126.458 30.6183C125.428 31.1769 124.233 31.4561 122.871 31.4561Z" fill="#BBC3CF"/>
<path d="M145.206 17.2918V31.2729H142.09V29.4925C141.566 30.1209 140.912 30.6096 140.126 30.9587C139.341 31.2903 138.494 31.4561 137.587 31.4561C135.719 31.4561 134.244 30.9412 133.162 29.9114C132.097 28.8641 131.565 27.3194 131.565 25.2772V17.2918H134.838V24.8321C134.838 26.0889 135.117 27.0314 135.675 27.6598C136.251 28.2707 137.063 28.5761 138.11 28.5761C139.28 28.5761 140.205 28.2183 140.886 27.5027C141.584 26.7696 141.933 25.7223 141.933 24.3609V17.2918H145.206Z" fill="#BBC3CF"/>
<path d="M152.606 19.3339C153.549 17.8678 155.207 17.1347 157.581 17.1347V20.2503C157.302 20.1979 157.049 20.1718 156.822 20.1718C155.547 20.1718 154.553 20.547 153.837 21.2976C153.121 22.0307 152.763 23.0954 152.763 24.4918V31.2729H149.491V17.2918H152.606V19.3339Z" fill="#BBC3CF"/>
<path d="M168.107 17.1347C169.468 17.1347 170.682 17.4314 171.746 18.0249C172.828 18.6183 173.675 19.4561 174.286 20.5383C174.897 21.6205 175.202 22.8685 175.202 24.2823C175.202 25.6961 174.897 26.9529 174.286 28.0525C173.675 29.1347 172.828 29.9725 171.746 30.5659C170.682 31.1594 169.468 31.4561 168.107 31.4561C167.147 31.4561 166.266 31.2903 165.463 30.9587C164.677 30.627 164.014 30.1296 163.473 29.4663V31.2729H160.357V11.8459H163.63V18.9936C164.188 18.3827 164.843 17.9201 165.594 17.6059C166.362 17.2918 167.199 17.1347 168.107 17.1347ZM167.74 28.6547C168.945 28.6547 169.931 28.2532 170.699 27.4503C171.484 26.6474 171.877 25.5914 171.877 24.2823C171.877 22.9732 171.484 21.9172 170.699 21.1143C169.931 20.3114 168.945 19.9099 167.74 19.9099C166.955 19.9099 166.248 20.0932 165.62 20.4598C164.991 20.8089 164.494 21.315 164.127 21.9783C163.761 22.6416 163.578 23.4096 163.578 24.2823C163.578 25.155 163.761 25.923 164.127 26.5863C164.494 27.2496 164.991 27.7645 165.62 28.131C166.248 28.4801 166.955 28.6547 167.74 28.6547Z" fill="#BBC3CF"/>
<defs>
<clipPath id="clip0_184_2964">
<rect width="48" height="43.6364" fill="white" transform="translate(0.795471 0.181885)"/>
</clipPath>
</defs>
</svg>
