<svg width="155" height="44" viewBox="0 0 155 44" fill="none" xmlns="http://www.w3.org/2000/svg">
<path d="M53.2347 14.7304C53.2347 22.5849 61.6783 23.6453 61.6783 29.3005C61.6783 31.2642 60.8143 31.9711 59.4398 31.9711C58.0652 31.9711 57.2012 31.2642 57.2012 29.3005V27.3369H53.1169V29.0256C53.1169 33.4242 55.3162 35.9376 59.5576 35.9376C63.7991 35.9376 65.9983 33.4242 65.9983 29.0256C65.9983 21.1711 57.5547 20.1107 57.5547 14.4554C57.5547 12.4918 58.3402 11.7456 59.7147 11.7456C61.0892 11.7456 61.8747 12.4918 61.8747 14.4554V15.5944H65.9591V14.7304C65.9591 10.3318 63.7991 7.81836 59.5969 7.81836C55.3947 7.81836 53.2347 10.3318 53.2347 14.7304Z" fill="#BBC3CF"/>
<path d="M72.2501 35.6235H76.5701V26.5122L82.029 8.13254H77.9053L74.6064 20.6605L71.3075 8.13254H66.7912L72.2501 26.5122V35.6235Z" fill="#BBC3CF"/>
<path d="M89.7455 8.13254H83.7367V35.6235H87.5069V16.1834L90.7273 35.6235H94.8116L97.7964 15.9085V35.6235H101.881V8.13254H95.872L92.9265 27.6511L89.7455 8.13254Z" fill="#BBC3CF"/>
<path d="M103.766 12.0598H108.283V35.6235H112.603V12.0598H117.119V8.13254H103.766V12.0598Z" fill="#BBC3CF"/>
<path d="M132.453 35.6235C132.021 34.6024 131.982 33.6205 131.982 32.2853V28.0438C131.982 25.1769 131.275 23.0955 129.115 22.1922C131.039 21.2889 131.942 19.4431 131.942 16.6154V14.4554C131.942 10.214 130.018 8.13254 125.541 8.13254H119.022V35.6235H123.342V24.4307H124.834C126.798 24.4307 127.662 25.3733 127.662 27.926V32.246C127.662 34.4845 127.819 34.9165 128.054 35.6235H132.453ZM125.423 12.0598C126.955 12.0598 127.622 12.9238 127.622 14.8875V17.5973C127.622 19.7965 126.641 20.5034 125.03 20.5034H123.342V12.0598H125.423Z" fill="#BBC3CF"/>
<path d="M134.823 35.6235H139.143V8.13254H134.823V35.6235Z" fill="#BBC3CF"/>
<path d="M150.745 25.3733V29.3005C150.745 31.2642 149.881 31.9711 148.507 31.9711C147.132 31.9711 146.268 31.2642 146.268 29.3005V14.4554C146.268 12.4918 147.132 11.7456 148.507 11.7456C149.881 11.7456 150.745 12.4918 150.745 14.4554V17.4009H154.83V14.7304C154.83 10.3318 152.63 7.81836 148.389 7.81836C144.147 7.81836 141.948 10.3318 141.948 14.7304V29.0256C141.948 33.4242 144.147 35.9376 148.389 35.9376C152.63 35.9376 154.83 33.4242 154.83 29.0256V25.3733H150.745Z" fill="#BBC3CF"/>
<g clip-path="url(#clip0_184_2962)">
<path fill-rule="evenodd" clip-rule="evenodd" d="M15.5967 14.0171L13.2361 18.0983L10.9899 14.202L13.3388 10.1209H29.7458L33.2295 4.07837H9.85218L5.24546 12.069C8.70125 18.039 12.1517 24.0091 15.5967 29.9792H22.5641C20.8142 26.9501 19.0652 23.9215 17.3172 20.8934L16.8328 20.0552H32.8008L39.6683 31.9464L32.8008 43.8185H7.60609L0.809045 31.8319L4.22226 25.9039L6.48305 29.7986L5.26015 31.9317L9.86688 39.9223H30.5415L35.1629 31.9317L30.5562 23.9411H23.5888C25.0666 26.5151 26.5454 29.0886 28.0252 31.6616L28.1926 31.9273L27.0695 33.8754H13.3506C9.19793 26.6947 5.05069 19.5193 0.908826 12.3494L0.753204 12.0646L7.60609 0.17334H39.9943L32.0095 14.0171H15.5967Z" fill="#BBC3CF"/>
</g>
<defs>
<clipPath id="clip0_184_2962">
<rect width="39.2425" height="43.6364" fill="white" transform="translate(0.753235 0.181885)"/>
</clipPath>
</defs>
</svg>
