<svg width="47" height="48" viewBox="0 0 47 48" fill="none" xmlns="http://www.w3.org/2000/svg">
<path d="M42.2066 1.98413C41.1542 1.98413 40.1449 2.40219 39.4007 3.14635C38.6566 3.8905 38.2385 4.89979 38.2385 5.95218V18.9901C38.2391 19.4145 38.072 19.8219 37.7737 20.1238L37.0821 20.8154C36.4349 20.3351 35.6426 20.091 34.8373 20.1238C34.356 20.1309 33.881 20.235 33.4408 20.4298C33.0006 20.6246 32.6041 20.9061 32.2751 21.2575L26.3684 27.9465C25.2584 29.1972 24.6418 30.8093 24.6338 32.4815V46.1996C24.6338 46.5003 24.7532 46.7886 24.9658 47.0013C25.1784 47.2139 25.4668 47.3333 25.7675 47.3333H37.1048C37.4055 47.3333 37.6938 47.2139 37.9064 47.0013C38.1191 46.7886 38.2385 46.5003 38.2385 46.1996V35.2931L43.9072 28.8762C45.3734 27.156 46.1774 24.969 46.1746 22.7087V5.95218C46.1746 4.89979 45.7566 3.8905 45.0124 3.14635C44.2682 2.40219 43.259 1.98413 42.2066 1.98413ZM43.9072 22.6974C43.9082 24.4135 43.2972 26.0737 42.1839 27.3797L36.2545 34.1027C36.0696 34.3123 35.9687 34.5828 35.9711 34.8623V45.0659H26.9012V32.5041C26.8935 31.3797 27.2967 30.2912 28.0349 29.4431L33.9417 22.7881C34.0586 22.6562 34.2016 22.5498 34.3616 22.4757C34.5215 22.4015 34.6951 22.3612 34.8713 22.3573C35.2247 22.3568 35.5651 22.4905 35.8237 22.7314C36.0522 22.963 36.186 23.2717 36.1986 23.5968C36.2111 23.922 36.1017 24.2401 35.8917 24.4887L30.5518 30.7128C30.3564 30.9414 30.2597 31.2382 30.2831 31.5379C30.3065 31.8377 30.448 32.116 30.6765 32.3114C30.9051 32.5068 31.2019 32.6035 31.5016 32.5801C31.8014 32.5567 32.0796 32.4152 32.2751 32.1867L37.615 25.9625C37.9916 25.5223 38.2554 24.9972 38.3838 24.4323C38.5122 23.8674 38.5012 23.2798 38.3519 22.72L39.3609 21.711C39.7217 21.3553 40.0086 20.9318 40.2051 20.4649C40.4016 19.9979 40.5039 19.4967 40.506 18.9901V5.95218C40.506 5.50116 40.6851 5.06861 41.0041 4.74968C41.323 4.43076 41.7555 4.25159 42.2066 4.25159C42.6576 4.25159 43.0901 4.43076 43.4091 4.74968C43.728 5.06861 43.9072 5.50116 43.9072 5.95218V22.6974ZM14.7136 21.2575C14.3863 20.907 13.9918 20.6259 13.5535 20.4311C13.1153 20.2363 12.6423 20.1318 12.1627 20.1238C11.3458 20.0964 10.5445 20.3528 9.89527 20.8494L9.22636 20.1238C8.92804 19.8219 8.76098 19.4145 8.76154 18.9901V5.95218C8.76154 4.89979 8.34347 3.8905 7.59932 3.14635C6.85516 2.40219 5.84587 1.98413 4.79348 1.98413C3.74109 1.98413 2.7318 2.40219 1.98764 3.14635C1.24349 3.8905 0.825427 4.89979 0.825427 5.95218V22.6974C0.818196 24.9653 1.62247 27.1609 3.09289 28.8875L8.76154 35.2931V46.1996C8.76154 46.5003 8.88098 46.7886 9.0936 47.0013C9.30621 47.2139 9.59458 47.3333 9.89527 47.3333H21.2326C21.5332 47.3333 21.8216 47.2139 22.0342 47.0013C22.2468 46.7886 22.3663 46.5003 22.3663 46.1996V32.5041C22.3583 30.832 21.7417 29.2199 20.6317 27.9692L14.7136 21.2575ZM20.0988 45.0659H11.029V34.8623C11.0286 34.5867 10.9278 34.3207 10.7456 34.114L4.82749 27.4024C3.70588 26.0915 3.09056 24.4225 3.09289 22.6974V5.95218C3.09289 5.50116 3.27206 5.06861 3.59098 4.74968C3.9099 4.43076 4.34246 4.25159 4.79348 4.25159C5.24451 4.25159 5.67706 4.43076 5.99598 4.74968C6.31491 5.06861 6.49408 5.50116 6.49408 5.95218V18.9901C6.4932 19.4978 6.59294 20.0007 6.78754 20.4697C6.98213 20.9386 7.26772 21.3644 7.62781 21.7224L8.63683 22.7314C8.48747 23.2911 8.47651 23.8787 8.60489 24.4436C8.73327 25.0085 8.99715 25.5337 9.37375 25.9739L14.7136 32.198C14.9091 32.4265 15.1873 32.5681 15.4871 32.5915C15.6355 32.603 15.7848 32.5853 15.9263 32.5392C16.0679 32.4931 16.199 32.4195 16.3122 32.3227C16.4253 32.226 16.5183 32.1078 16.5858 31.9751C16.6533 31.8424 16.694 31.6977 16.7056 31.5493C16.7172 31.4008 16.6994 31.2516 16.6533 31.11C16.6072 30.9684 16.5337 30.8373 16.4369 30.7242L11.097 24.5C10.887 24.2514 10.7776 23.9333 10.7901 23.6082C10.8027 23.283 10.9365 22.9743 11.165 22.7427C11.4217 22.4988 11.7633 22.3646 12.1174 22.3686C12.2909 22.3727 12.4617 22.4119 12.6196 22.4841C12.7775 22.5562 12.919 22.6596 13.0357 22.7881L18.9651 29.4431C19.7034 30.2912 20.1065 31.3797 20.0988 32.5041V45.0659Z" fill="#001F15"/>
<path d="M22.9971 19.9985C23.1355 20.1246 23.3162 20.1946 23.5038 20.1946C23.6913 20.1946 23.8721 20.1246 24.0105 19.9985L33.0183 11.8467C34.6622 10.1939 35.5105 8.47379 35.5105 6.73125C35.5105 5.19064 35.0751 3.08912 33.8215 1.84017C32.5877 0.646973 30.9319 -0.0139965 29.2125 0.000410297C28.086 -0.0119467 26.9741 0.254991 25.9769 0.777193C24.9798 1.2994 24.1286 2.06047 23.5 2.99189C22.8715 2.06047 22.0203 1.2994 21.0231 0.777193C20.0259 0.254991 18.914 -0.0119467 17.7875 0.000410297C16.0671 -0.0119974 14.4111 0.651717 13.1785 1.84765C11.9249 3.0966 11.4896 5.19064 11.4896 6.73125C11.4896 8.47379 12.3378 10.1939 14.0193 11.8691L22.9971 19.9985ZM14.237 2.90215C15.1888 1.9864 16.4645 1.48124 17.7875 1.49615C18.8507 1.50082 19.8899 1.81186 20.7796 2.39176C21.6694 2.97166 22.3717 3.79566 22.8019 4.76435C22.8572 4.90384 22.9534 5.02354 23.0779 5.10788C23.2024 5.19223 23.3495 5.23733 23.5 5.23733C23.6506 5.23733 23.7976 5.19223 23.9221 5.10788C24.0466 5.02354 24.1428 4.90384 24.1981 4.76435C24.6329 3.79903 25.3363 2.97812 26.2251 2.39888C27.1138 1.81964 28.1505 1.50636 29.2125 1.49615C30.5356 1.48124 31.8113 1.9864 32.7631 2.90215C33.6219 3.99047 34.0636 5.34792 34.0092 6.73125C34.0092 8.06246 33.311 9.43106 31.9674 10.7623L23.5 18.4354L15.0552 10.7847C13.689 9.42358 12.9909 8.06246 12.9909 6.73125C12.9364 5.34792 13.3781 3.99047 14.237 2.90215Z" fill="#019867"/>
</svg>
