<svg width="51" height="36" viewBox="0 0 51 36" fill="none" xmlns="http://www.w3.org/2000/svg">
<path d="M21.5227 14.5455H18.1136V11.1364C18.1136 10.835 17.9939 10.5459 17.7808 10.3328C17.5677 10.1197 17.2787 10 16.9773 10H12.4318C12.1304 10 11.8414 10.1197 11.6283 10.3328C11.4152 10.5459 11.2955 10.835 11.2955 11.1364V14.5455H7.88636C7.58498 14.5455 7.29594 14.6652 7.08283 14.8783C6.86972 15.0914 6.75 15.3804 6.75 15.6818V20.2273C6.75 20.5287 6.86972 20.8177 7.08283 21.0308C7.29594 21.2439 7.58498 21.3636 7.88636 21.3636H11.2955V24.7727C11.2955 25.0741 11.4152 25.3632 11.6283 25.5763C11.8414 25.7894 12.1304 25.9091 12.4318 25.9091H16.9773C17.2787 25.9091 17.5677 25.7894 17.7808 25.5763C17.9939 25.3632 18.1136 25.0741 18.1136 24.7727V21.3636H21.5227C21.8241 21.3636 22.1132 21.2439 22.3263 21.0308C22.5394 20.8177 22.6591 20.5287 22.6591 20.2273V15.6818C22.6591 15.3804 22.5394 15.0914 22.3263 14.8783C22.1132 14.6652 21.8241 14.5455 21.5227 14.5455ZM20.3864 19.0909H16.9773C16.6759 19.0909 16.3869 19.2106 16.1737 19.4237C15.9606 19.6369 15.8409 19.9259 15.8409 20.2273V23.6364H13.5682V20.2273C13.5682 19.9259 13.4485 19.6369 13.2354 19.4237C13.0222 19.2106 12.7332 19.0909 12.4318 19.0909H9.02273V16.8182H12.4318C12.7332 16.8182 13.0222 16.6985 13.2354 16.4854C13.4485 16.2722 13.5682 15.9832 13.5682 15.6818V12.2727H15.8409V15.6818C15.8409 15.9832 15.9606 16.2722 16.1737 16.4854C16.3869 16.6985 16.6759 16.8182 16.9773 16.8182H20.3864V19.0909ZM43.1137 10H28.3409C28.0395 10 27.7505 10.1197 27.5374 10.3328C27.3243 10.5459 27.2046 10.835 27.2046 11.1364C27.2046 11.4377 27.3243 11.7268 27.5374 11.9399C27.7505 12.153 28.0395 12.2727 28.3409 12.2727H43.1137C43.415 12.2727 43.7041 12.153 43.9172 11.9399C44.1303 11.7268 44.25 11.4377 44.25 11.1364C44.25 10.835 44.1303 10.5459 43.9172 10.3328C43.7041 10.1197 43.415 10 43.1137 10ZM43.1137 14.5455H28.3409C28.0395 14.5455 27.7505 14.6652 27.5374 14.8783C27.3243 15.0914 27.2046 15.3804 27.2046 15.6818C27.2046 15.9832 27.3243 16.2722 27.5374 16.4854C27.7505 16.6985 28.0395 16.8182 28.3409 16.8182H43.1137C43.415 16.8182 43.7041 16.6985 43.9172 16.4854C44.1303 16.2722 44.25 15.9832 44.25 15.6818C44.25 15.3804 44.1303 15.0914 43.9172 14.8783C43.7041 14.6652 43.415 14.5455 43.1137 14.5455ZM43.1137 19.0909H28.3409C28.0395 19.0909 27.7505 19.2106 27.5374 19.4237C27.3243 19.6369 27.2046 19.9259 27.2046 20.2273C27.2046 20.5287 27.3243 20.8177 27.5374 21.0308C27.7505 21.2439 28.0395 21.3636 28.3409 21.3636H43.1137C43.415 21.3636 43.7041 21.2439 43.9172 21.0308C44.1303 20.8177 44.25 20.5287 44.25 20.2273C44.25 19.9259 44.1303 19.6369 43.9172 19.4237C43.7041 19.2106 43.415 19.0909 43.1137 19.0909ZM36.2955 23.6364H28.3409C28.0395 23.6364 27.7505 23.7561 27.5374 23.9692C27.3243 24.1823 27.2046 24.4714 27.2046 24.7727C27.2046 25.0741 27.3243 25.3632 27.5374 25.5763C27.7505 25.7894 28.0395 25.9091 28.3409 25.9091H36.2955C36.5969 25.9091 36.8859 25.7894 37.099 25.5763C37.3121 25.3632 37.4318 25.0741 37.4318 24.7727C37.4318 24.4714 37.3121 24.1823 37.099 23.9692C36.8859 23.7561 36.5969 23.6364 36.2955 23.6364Z" fill="#019867"/>
<path d="M46.875 0H4.125C3.2299 0 2.37145 0.354681 1.73852 0.986018C1.10558 1.61736 0.75 2.47363 0.75 3.36648V32.5426C0.75 33.4355 1.10558 34.2917 1.73852 34.9231C2.37145 35.5544 3.2299 35.9091 4.125 35.9091H46.875C47.7701 35.9091 48.6286 35.5544 49.2615 34.9231C49.8944 34.2917 50.25 33.4355 50.25 32.5426V3.36648C50.25 2.47363 49.8944 1.61736 49.2615 0.986018C48.6286 0.354681 47.7701 0 46.875 0ZM48 32.5426C48 32.8402 47.8815 33.1257 47.6705 33.3361C47.4595 33.5466 47.1734 33.6648 46.875 33.6648H4.125C3.82663 33.6648 3.54048 33.5466 3.32951 33.3361C3.11853 33.1257 3 32.8402 3 32.5426V3.36648C3 3.06886 3.11853 2.78344 3.32951 2.57299C3.54048 2.36255 3.82663 2.24432 4.125 2.24432H46.875C47.1734 2.24432 47.4595 2.36255 47.6705 2.57299C47.8815 2.78344 48 3.06886 48 3.36648V32.5426Z" fill="#001F15"/>
</svg>
