<svg width="45" height="48" viewBox="0 0 45 48" fill="none" xmlns="http://www.w3.org/2000/svg">
<path d="M11.85 0H7.11672C6.80288 0 6.50189 0.124672 6.27998 0.346589C6.05806 0.568507 5.93339 0.869491 5.93339 1.18333V2.36666H3.56673C2.62521 2.36666 1.72226 2.74068 1.05651 3.40643C0.390755 4.07218 0.0167389 4.97513 0.0167389 5.91665V43.7832C0.0167389 44.7247 0.390755 45.6277 1.05651 46.2934C1.72226 46.9592 2.62521 47.3332 3.56673 47.3332H41.4333C42.3748 47.3332 43.2777 46.9592 43.9435 46.2934C44.6092 45.6277 44.9833 44.7247 44.9833 43.7832V5.91665C44.9833 4.97513 44.6092 4.07218 43.9435 3.40643C43.2777 2.74068 42.3748 2.36666 41.4333 2.36666H39.0666V1.18333C39.0666 0.869491 38.9419 0.568507 38.72 0.346589C38.4981 0.124672 38.1971 0 37.8833 0H33.15C32.8361 0 32.5351 0.124672 32.3132 0.346589C32.0913 0.568507 31.9666 0.869491 31.9666 1.18333V2.36666H13.0334V1.18333C13.0334 0.869491 12.9087 0.568507 12.6868 0.346589C12.4649 0.124672 12.1639 0 11.85 0ZM8.30005 2.36666H10.6667V7.09998H8.30005V2.36666ZM3.56673 44.9665C3.25289 44.9665 2.9519 44.8419 2.72999 44.6199C2.50807 44.398 2.3834 44.097 2.3834 43.7832V37.1684L10.1815 44.9665H3.56673ZM11.85 43.298L4.05189 35.4999H10.7969C11.0793 35.4999 11.3502 35.6121 11.5499 35.8118C11.7497 36.0116 11.8619 36.2824 11.8619 36.5649L11.85 43.298ZM42.6166 43.7832C42.6166 44.097 42.4919 44.398 42.27 44.6199C42.0481 44.8419 41.7471 44.9665 41.4333 44.9665H14.2167V36.5649C14.2167 35.6548 13.8551 34.7819 13.2116 34.1383C12.568 33.4948 11.6952 33.1332 10.785 33.1332H2.3834V14.2H42.6166V43.7832ZM34.3333 2.36666H36.7V7.09998H34.3333V2.36666ZM31.9666 4.73332V8.28331C31.9666 8.59715 32.0913 8.89813 32.3132 9.12005C32.5351 9.34197 32.8361 9.46664 33.15 9.46664H37.8833C38.1971 9.46664 38.4981 9.34197 38.72 9.12005C38.9419 8.89813 39.0666 8.59715 39.0666 8.28331V4.73332H41.4333C41.7471 4.73332 42.0481 4.85799 42.27 5.07991C42.4919 5.30183 42.6166 5.60281 42.6166 5.91665V11.8333H2.3834V5.91665C2.3834 5.60281 2.50807 5.30183 2.72999 5.07991C2.9519 4.85799 3.25289 4.73332 3.56673 4.73332H5.93339V8.28331C5.93339 8.59715 6.05806 8.89813 6.27998 9.12005C6.50189 9.34197 6.80288 9.46664 7.11672 9.46664H11.85C12.1639 9.46664 12.4649 9.34197 12.6868 9.12005C12.9087 8.89813 13.0334 8.59715 13.0334 8.28331V4.73332H31.9666Z" fill="black"/>
<path d="M15.4001 31.9499H18.95V35.4999C18.95 35.8137 19.0747 36.1147 19.2966 36.3366C19.5185 36.5585 19.8195 36.6832 20.1334 36.6832H24.8667C25.1805 36.6832 25.4815 36.5585 25.7034 36.3366C25.9253 36.1147 26.05 35.8137 26.05 35.4999V31.9499H29.6C29.9138 31.9499 30.2148 31.8252 30.4368 31.6033C30.6587 31.3814 30.7833 31.0804 30.7833 30.7665V26.0332C30.7833 25.7194 30.6587 25.4184 30.4368 25.1965C30.2148 24.9746 29.9138 24.8499 29.6 24.8499H26.05V21.2999C26.05 20.9861 25.9253 20.6851 25.7034 20.4632C25.4815 20.2412 25.1805 20.1166 24.8667 20.1166H20.1334C19.8195 20.1166 19.5185 20.2412 19.2966 20.4632C19.0747 20.6851 18.95 20.9861 18.95 21.2999V24.8499H15.4001C15.0862 24.8499 14.7852 24.9746 14.5633 25.1965C14.3414 25.4184 14.2167 25.7194 14.2167 26.0332V30.7665C14.2167 31.0804 14.3414 31.3814 14.5633 31.6033C14.7852 31.8252 15.0862 31.9499 15.4001 31.9499ZM16.5834 27.2166H20.1334C20.4472 27.2166 20.7482 27.0919 20.9701 26.87C21.192 26.648 21.3167 26.3471 21.3167 26.0332V22.4832H23.6834V26.0332C23.6834 26.3471 23.808 26.648 24.0299 26.87C24.2519 27.0919 24.5529 27.2166 24.8667 27.2166H28.4167V29.5832H24.8667C24.5529 29.5832 24.2519 29.7079 24.0299 29.9298C23.808 30.1517 23.6834 30.4527 23.6834 30.7665V34.3165H21.3167V30.7665C21.3167 30.4527 21.192 30.1517 20.9701 29.9298C20.7482 29.7079 20.4472 29.5832 20.1334 29.5832H16.5834V27.2166Z" fill="#019867"/>
</svg>
