<svg width="53" height="49" viewBox="0 0 53 49" fill="none" xmlns="http://www.w3.org/2000/svg">
<path d="M49.8278 27.5687C49.2918 27.3441 48.7165 27.2285 48.1354 27.2285C47.5543 27.2285 46.979 27.3441 46.443 27.5687L36.8449 31.0245C36.5252 30.0842 35.8531 29.3046 34.9701 28.8498C34.0871 28.3951 33.0621 28.3007 32.1109 28.5865L19.4238 31.9476L9.1511 28.4563C9.02891 28.4162 8.901 28.3962 8.77238 28.3972H6.40539V26.0302C6.40539 25.7163 6.2807 25.4153 6.05875 25.1933C5.83681 24.9714 5.53578 24.8467 5.2219 24.8467H1.67142C1.35753 24.8467 1.05651 24.9714 0.83456 25.1933C0.612612 25.4153 0.487923 25.7163 0.487923 26.0302C0.487923 26.3441 0.612612 26.6451 0.83456 26.867C1.05651 27.089 1.35753 27.2137 1.67142 27.2137H4.0384V46.1496H1.67142C1.35753 46.1496 1.05651 46.2743 0.83456 46.4962C0.612612 46.7182 0.487923 47.0192 0.487923 47.3331C0.487923 47.6469 0.612612 47.948 0.83456 48.1699C1.05651 48.3919 1.35753 48.5166 1.67142 48.5166H5.2219C5.53578 48.5166 5.83681 48.3919 6.05875 48.1699C6.2807 47.948 6.40539 47.6469 6.40539 47.3331V43.7826H8.77238L16.5834 46.4573C20.6521 47.8628 25.1119 47.5989 28.9865 45.7235L49.9935 35.6757C51.0092 35.1842 51.8011 34.3262 52.2095 33.2743C52.618 32.2224 52.6127 31.0549 52.1948 30.0067C51.9809 29.4641 51.6615 28.9693 51.2553 28.5508C50.849 28.1324 50.3638 27.7986 49.8278 27.5687ZM49.0112 33.5454L28.0042 43.6051C26.3571 44.4045 24.5685 44.8713 22.7409 44.979C20.9132 45.0866 19.0822 44.8329 17.3527 44.2323L9.37596 41.4866C9.24636 41.4421 9.11059 41.4181 8.97357 41.4156H6.40539V30.7642H8.58302L19.0451 34.3146C19.2689 34.3824 19.5077 34.3824 19.7315 34.3146L32.75 30.7642C33.1002 30.6656 33.4742 30.6974 33.8027 30.8536C34.1313 31.0099 34.392 31.28 34.5365 31.6139C34.681 31.9477 34.6996 32.3227 34.5887 32.6691C34.4778 33.0156 34.245 33.3101 33.9335 33.498L23.6371 37.9006C23.4787 37.9495 23.3324 38.0311 23.2076 38.1401C23.0827 38.2492 22.9822 38.3832 22.9125 38.5335C22.8428 38.6839 22.8054 38.8472 22.8028 39.0129C22.8002 39.1786 22.8324 39.343 22.8974 39.4955C22.9624 39.648 23.0587 39.7851 23.18 39.898C23.3014 40.0109 23.4451 40.097 23.6018 40.1508C23.7586 40.2046 23.9249 40.2249 24.09 40.2104C24.2551 40.1959 24.4153 40.1468 24.5602 40.0664L34.9276 35.6401H35.0341C35.8739 35.1689 36.5072 34.4006 36.8094 33.4862L47.2359 29.7345C47.7413 29.4991 48.3195 29.4741 48.8433 29.665C49.3671 29.8558 49.7936 30.247 50.029 30.7523C50.2644 31.2577 50.2894 31.8358 50.0985 32.3596C49.9077 32.8834 49.5165 33.3099 49.0112 33.5454Z" fill="#001F15"/>
<path d="M27.3059 0.289212C27.0907 0.102683 26.8155 0 26.5307 0C26.2459 0 25.9707 0.102683 25.7555 0.289212C25.3413 0.64426 15.8734 9.01156 15.8734 16.5623C15.9761 19.3544 17.1312 22.0044 19.1069 23.9801C21.0826 25.9558 23.7326 27.111 26.5248 27.2137C29.317 27.111 31.967 25.9558 33.9427 23.9801C35.9184 22.0044 37.0735 19.3544 37.1762 16.5623C37.1762 9.01156 27.7083 0.64426 27.3059 0.289212ZM26.5248 24.8467C24.3628 24.738 22.3182 23.8303 20.7875 22.2996C19.2568 20.7689 18.3491 18.7243 18.2403 16.5623C18.2403 11.2247 24.3353 4.893 26.5248 2.78638C28.7261 4.893 34.8093 11.2129 34.8093 16.5623C34.7005 18.7243 33.7928 20.7689 32.2621 22.2996C30.7314 23.8303 28.6868 24.738 26.5248 24.8467Z" fill="#019867"/>
<path d="M25.3413 11.8283V14.1953H22.9743C22.6604 14.1953 22.3594 14.3199 22.1374 14.5419C21.9155 14.7638 21.7908 15.0649 21.7908 15.3788C21.7908 15.6926 21.9155 15.9937 22.1374 16.2156C22.3594 16.4376 22.6604 16.5622 22.9743 16.5622H25.3413V18.9292C25.3413 19.2431 25.466 19.5441 25.6879 19.7661C25.9099 19.988 26.2109 20.1127 26.5248 20.1127C26.8386 20.1127 27.1397 19.988 27.3616 19.7661C27.5836 19.5441 27.7083 19.2431 27.7083 18.9292V16.5622H30.0752C30.3891 16.5622 30.6902 16.4376 30.9121 16.2156C31.1341 15.9937 31.2587 15.6926 31.2587 15.3788C31.2587 15.0649 31.1341 14.7638 30.9121 14.5419C30.6902 14.3199 30.3891 14.1953 30.0752 14.1953H27.7083V11.8283C27.7083 11.5144 27.5836 11.2134 27.3616 10.9914C27.1397 10.7695 26.8386 10.6448 26.5248 10.6448C26.2109 10.6448 25.9099 10.7695 25.6879 10.9914C25.466 11.2134 25.3413 11.5144 25.3413 11.8283Z" fill="#019867"/>
</svg>
