<svg width="50" height="49" viewBox="0 0 50 49" fill="none" xmlns="http://www.w3.org/2000/svg">
<path d="M16.2903 43.5651L23.719 47.102C24.9262 47.7366 26.2697 48.0682 27.6336 48.0682C28.9975 48.0682 30.341 47.7366 31.5482 47.102L46.3597 41.8596H46.4856C49.4616 40.3716 50.0454 37.7046 49.3357 35.8503C48.8876 34.8104 48.0554 33.9836 47.0127 33.5422C45.9699 33.1008 44.797 33.0788 43.7385 33.4809L31.7199 37.7046C31.3273 37.8643 30.8878 37.8643 30.4952 37.7046L29.5566 37.2811C29.7575 36.5221 29.7053 35.7183 29.4078 34.9918C29.2262 34.5524 28.9584 34.1539 28.6203 33.8197C28.2821 33.4855 27.8805 33.2224 27.439 33.0459L18.9344 29.1542C18.1356 28.8334 17.2878 28.6514 16.4277 28.6162C15.4117 28.5793 14.3989 28.7507 13.4516 29.1199L9.25086 30.9055L1.38727 32.0501C1.23695 32.0712 1.09225 32.1216 0.961435 32.1986C0.830615 32.2755 0.716236 32.3775 0.624828 32.4987C0.53342 32.6199 0.466773 32.7578 0.428692 32.9048C0.390611 33.0517 0.381843 33.2047 0.402887 33.355C0.423931 33.5053 0.474375 33.65 0.55134 33.7808C0.628306 33.9117 0.730284 34.026 0.851453 34.1174C0.972622 34.2088 1.11061 34.2755 1.25753 34.3136C1.40446 34.3517 1.55745 34.3604 1.70776 34.3394L9.72016 33.1947C9.81862 33.1806 9.91482 33.1537 10.0063 33.1146L14.333 31.2489C15.5348 30.8134 16.8513 30.8134 18.053 31.2489L26.5462 35.1292C26.7125 35.1918 26.8643 35.2878 26.9923 35.4112C27.1202 35.5346 27.2216 35.6828 27.2902 35.8468C27.3588 36.0108 27.3932 36.1871 27.3912 36.3648C27.3892 36.5426 27.351 36.718 27.2787 36.8805C27.1872 37.1215 27.0328 37.3335 26.8314 37.4946C26.6301 37.6556 26.3893 37.7598 26.1341 37.7962C25.9358 37.7976 25.7387 37.7667 25.5504 37.7046L17.8814 35.484C17.5778 35.402 17.2541 35.444 16.9815 35.6007C16.7088 35.7574 16.5096 36.016 16.4277 36.3196C16.3457 36.6232 16.3877 36.9469 16.5444 37.2195C16.7011 37.4921 16.9597 37.6913 17.2633 37.7733L25.0009 39.9252C25.3724 40.0378 25.7575 40.0994 26.1456 40.1083H26.3173C27.0712 40.0457 27.7835 39.7359 28.3433 39.2269L29.5451 39.7764C30.0144 39.984 30.5201 40.0968 31.0331 40.1083C31.5373 40.1247 32.0395 40.0391 32.5097 39.8565L44.4367 35.6557C44.9382 35.4291 45.5086 35.409 46.0248 35.5996C46.541 35.7902 46.9614 36.1763 47.1953 36.6744C47.5616 37.613 47.1953 38.9637 45.5241 39.7878L30.7241 44.9959H30.5982C29.6979 45.4818 28.6909 45.7361 27.6679 45.7361C26.6449 45.7361 25.6379 45.4818 24.7377 44.9959L16.9199 41.3216C16.6878 41.2123 16.4258 41.1841 16.1759 41.2415L1.2957 44.6754C0.996676 44.7422 0.736433 44.925 0.572219 45.1837C0.408004 45.4423 0.35327 45.7556 0.420056 46.0546C0.486843 46.3537 0.669679 46.6139 0.928343 46.7781C1.18701 46.9423 1.50031 46.9971 1.79933 46.9303L16.2903 43.5651Z" fill="#001F15"/>
<path d="M28.2517 30.608C28.4627 30.801 28.7383 30.9081 29.0243 30.9081C29.3103 30.9081 29.5859 30.801 29.7969 30.608L43.5325 18.1315C46.0392 15.6019 47.3326 12.9693 47.3326 10.3023C47.3326 7.94435 46.6687 4.72794 44.7572 2.81641C42.8759 0.990202 40.351 -0.0214219 37.7292 0.000627966C36.0115 -0.0182846 34.316 0.390268 32.7955 1.18951C31.275 1.98874 29.977 3.15358 29.0186 4.57914C28.0601 3.15358 26.7622 1.98874 25.2417 1.18951C23.7211 0.390268 22.0257 -0.0182846 20.308 0.000627966C17.6845 -0.0183622 15.1594 0.997463 13.2799 2.82786C11.3684 4.73939 10.7045 7.94435 10.7045 10.3023C10.7045 12.9693 11.998 15.6019 14.5619 18.1659L28.2517 30.608ZM14.8939 4.44178C16.3452 3.04022 18.2905 2.26706 20.308 2.28988C21.9292 2.29702 23.5137 2.77308 24.8704 3.66063C26.2271 4.54818 27.2981 5.80931 27.9541 7.29191C28.0385 7.50541 28.1851 7.6886 28.3749 7.81769C28.5647 7.94679 28.789 8.01582 29.0186 8.01582C29.2481 8.01582 29.4724 7.94679 29.6622 7.81769C29.8521 7.6886 29.9987 7.50541 30.0831 7.29191C30.7461 5.81447 31.8187 4.55805 33.1738 3.67152C34.529 2.78499 36.1099 2.30551 37.7292 2.28988C39.7467 2.26706 41.6919 3.04022 43.1433 4.44178C44.4528 6.10748 45.1264 8.18507 45.0434 10.3023C45.0434 12.3397 43.9789 14.4344 41.93 16.4718L29.0186 28.2157L16.1415 16.5062C14.0583 14.4229 12.9938 12.3397 12.9938 10.3023C12.9107 8.18507 13.5843 6.10748 14.8939 4.44178Z" fill="#019867"/>
</svg>
