<svg width="45" height="49" viewBox="0 0 45 49" fill="none" xmlns="http://www.w3.org/2000/svg">
<path d="M44.9293 7.30132C44.9364 7.22651 44.9364 7.15119 44.9293 7.07638C44.9121 6.78482 44.7877 6.5099 44.5801 6.30447C44.3725 6.09904 44.0963 5.9776 43.8046 5.96351L22.8139 0.0439699C22.6048 -0.0146566 22.3837 -0.0146566 22.1746 0.0439699L1.18391 5.96351C0.882388 5.98163 0.599199 6.11432 0.392312 6.33441C0.185426 6.5545 0.0704902 6.84535 0.0710344 7.14741C0.063895 7.22222 0.063895 7.29754 0.0710344 7.37236V12.5934C-6.6156e-08 15.4348 0 18.8681 0 21.3543C0 34.3181 8.71356 45.0324 22.1864 48.5842C22.3843 48.6364 22.5923 48.6364 22.7902 48.5842C36.2749 45.0324 44.9885 34.3181 44.9885 21.3543V12.5224C44.9885 10.119 44.9174 7.84592 44.9293 7.30132ZM22.4942 46.2164C10.2526 42.8659 2.36781 33.1934 2.36781 21.3543V8.04718L22.4942 2.41178L42.6207 8.01167V21.3543C42.6207 33.1105 34.7358 42.8185 22.4942 46.2164Z" fill="#001F15"/>
<path d="M30.7816 21.3544H26.046V16.6187C26.046 16.3047 25.9213 16.0036 25.6992 15.7816C25.4772 15.5595 25.1761 15.4348 24.8621 15.4348H20.1265C19.8125 15.4348 19.5113 15.5595 19.2893 15.7816C19.0673 16.0036 18.9425 16.3047 18.9425 16.6187V21.3544H14.2069C13.8929 21.3544 13.5918 21.4791 13.3698 21.7011C13.1477 21.9231 13.023 22.2243 13.023 22.5383V27.2739C13.023 27.5879 13.1477 27.889 13.3698 28.111C13.5918 28.3331 13.8929 28.4578 14.2069 28.4578H18.9425V33.1934C18.9425 33.5074 19.0673 33.8085 19.2893 34.0306C19.5113 34.2526 19.8125 34.3773 20.1265 34.3773H24.8621C25.1761 34.3773 25.4772 34.2526 25.6992 34.0306C25.9213 33.8085 26.046 33.5074 26.046 33.1934V28.4578H30.7816C31.0956 28.4578 31.3967 28.3331 31.6188 28.111C31.8408 27.889 31.9655 27.5879 31.9655 27.2739V22.5383C31.9655 22.2243 31.8408 21.9231 31.6188 21.7011C31.3967 21.4791 31.0956 21.3544 30.7816 21.3544ZM29.5977 26.09H24.8621C24.5481 26.09 24.247 26.2147 24.0249 26.4367C23.8029 26.6588 23.6782 26.9599 23.6782 27.2739V32.0095H21.3104V27.2739C21.3104 26.9599 21.1856 26.6588 20.9636 26.4367C20.7416 26.2147 20.4404 26.09 20.1265 26.09H15.3908V23.7222H20.1265C20.4404 23.7222 20.7416 23.5974 20.9636 23.3754C21.1856 23.1534 21.3104 22.8523 21.3104 22.5383V17.8026H23.6782V22.5383C23.6782 22.8523 23.8029 23.1534 24.0249 23.3754C24.247 23.5974 24.5481 23.7222 24.8621 23.7222H29.5977V26.09Z" fill="#019867"/>
</svg>
