<svg width="46" height="48" viewBox="0 0 46 48" fill="none" xmlns="http://www.w3.org/2000/svg">
<path d="M41.3812 1.98413C40.3288 1.98413 39.3195 2.40219 38.5753 3.14635C37.8312 3.8905 37.4131 4.89979 37.4131 5.95218V18.9901C37.4137 19.4145 37.2466 19.8219 36.9483 20.1238L36.2567 20.8154C35.6095 20.3351 34.8173 20.091 34.0119 20.1238C33.5306 20.1309 33.0556 20.235 32.6154 20.4298C32.1752 20.6246 31.7787 20.9061 31.4497 21.2575L25.543 27.9465C24.433 29.1972 23.8164 30.8093 23.8084 32.4815V46.1996C23.8084 46.5003 23.9278 46.7886 24.1404 47.0013C24.3531 47.2139 24.6414 47.3333 24.9421 47.3333H36.2794C36.5801 47.3333 36.8685 47.2139 37.0811 47.0013C37.2937 46.7886 37.4131 46.5003 37.4131 46.1996V35.2931L43.0818 28.8762C44.548 27.156 45.3521 24.969 45.3492 22.7087V5.95218C45.3492 4.89979 44.9312 3.8905 44.187 3.14635C43.4429 2.40219 42.4336 1.98413 41.3812 1.98413ZM43.0818 22.6974C43.0829 24.4135 42.4718 26.0737 41.3585 27.3797L35.4291 34.1027C35.2442 34.3123 35.1433 34.5828 35.1457 34.8623V45.0659H26.0758V32.5041C26.0681 31.3797 26.4713 30.2912 27.2096 29.4431L33.1163 22.7881C33.2333 22.6562 33.3762 22.5498 33.5362 22.4757C33.6961 22.4015 33.8697 22.3612 34.046 22.3573C34.3993 22.3568 34.7397 22.4905 34.9983 22.7314C35.2269 22.963 35.3606 23.2717 35.3732 23.5968C35.3858 23.922 35.2763 24.2401 35.0663 24.4887L29.7264 30.7128C29.531 30.9414 29.4343 31.2382 29.4577 31.5379C29.4811 31.8377 29.6226 32.116 29.8512 32.3114C30.0797 32.5068 30.3765 32.6035 30.6763 32.5801C30.976 32.5567 31.2543 32.4152 31.4497 32.1867L36.7896 25.9625C37.1662 25.5223 37.4301 24.9972 37.5584 24.4323C37.6868 23.8674 37.6759 23.2798 37.5265 22.72L38.5355 21.711C38.8963 21.3553 39.1832 20.9318 39.3797 20.4649C39.5762 19.9979 39.6785 19.4967 39.6806 18.9901V5.95218C39.6806 5.50116 39.8598 5.06861 40.1787 4.74968C40.4976 4.43076 40.9302 4.25159 41.3812 4.25159C41.8322 4.25159 42.2648 4.43076 42.5837 4.74968C42.9026 5.06861 43.0818 5.50116 43.0818 5.95218V22.6974ZM13.8882 21.2575C13.561 20.907 13.1664 20.6259 12.7282 20.4311C12.2899 20.2363 11.8169 20.1318 11.3373 20.1238C10.5204 20.0964 9.71917 20.3528 9.06989 20.8494L8.40099 20.1238C8.10266 19.8219 7.9356 19.4145 7.93616 18.9901V5.95218C7.93616 4.89979 7.51809 3.8905 6.77394 3.14635C6.02979 2.40219 5.0205 1.98413 3.9681 1.98413C2.91571 1.98413 1.90642 2.40219 1.16226 3.14635C0.41811 3.8905 4.83372e-05 4.89979 4.83372e-05 5.95218V22.6974C-0.00718265 24.9653 0.797089 27.1609 2.26751 28.8875L7.93616 35.2931V46.1996C7.93616 46.5003 8.0556 46.7886 8.26822 47.0013C8.48083 47.2139 8.7692 47.3333 9.06989 47.3333H20.4072C20.7079 47.3333 20.9962 47.2139 21.2089 47.0013C21.4215 46.7886 21.5409 46.5003 21.5409 46.1996V32.5041C21.5329 30.832 20.9163 29.2199 19.8063 27.9692L13.8882 21.2575ZM19.2735 45.0659H10.2036V34.8623C10.2032 34.5867 10.1025 34.3207 9.92018 34.114L4.00211 27.4024C2.88051 26.0915 2.26518 24.4225 2.26751 22.6974V5.95218C2.26751 5.50116 2.44668 5.06861 2.7656 4.74968C3.08452 4.43076 3.51708 4.25159 3.9681 4.25159C4.41913 4.25159 4.85168 4.43076 5.1706 4.74968C5.48953 5.06861 5.6687 5.50116 5.6687 5.95218V18.9901C5.66782 19.4978 5.76756 20.0007 5.96216 20.4697C6.15675 20.9386 6.44234 21.3644 6.80243 21.7224L7.81145 22.7314C7.66209 23.2911 7.65113 23.8787 7.77951 24.4436C7.9079 25.0085 8.17177 25.5337 8.54837 25.9739L13.8882 32.198C14.0837 32.4265 14.3619 32.5681 14.6617 32.5915C14.8101 32.603 14.9594 32.5853 15.101 32.5392C15.2425 32.4931 15.3736 32.4195 15.4868 32.3227C15.5999 32.226 15.6929 32.1078 15.7604 31.9751C15.8279 31.8424 15.8686 31.6977 15.8802 31.5493C15.8918 31.4008 15.874 31.2516 15.8279 31.11C15.7818 30.9684 15.7083 30.8373 15.6115 30.7242L10.2716 24.5C10.0616 24.2514 9.95218 23.9333 9.96477 23.6082C9.97736 23.283 10.1111 22.9743 10.3397 22.7427C10.5963 22.4988 10.938 22.3646 11.292 22.3686C11.4655 22.3727 11.6364 22.4119 11.7942 22.4841C11.9521 22.5562 12.0936 22.6596 12.2103 22.7881L18.1397 29.4431C18.878 30.2912 19.2811 31.3797 19.2735 32.5041V45.0659Z" fill="white"/>
<path d="M22.1717 19.9985C22.3101 20.1246 22.4908 20.1946 22.6784 20.1946C22.8659 20.1946 23.0467 20.1246 23.1851 19.9985L32.1929 11.8467C33.8368 10.1939 34.6851 8.47379 34.6851 6.73125C34.6851 5.19064 34.2497 3.08912 32.9961 1.84017C31.7624 0.646973 30.1065 -0.0139965 28.3871 0.000410297C27.2606 -0.0119467 26.1487 0.254991 25.1516 0.777193C24.1544 1.2994 23.3032 2.06047 22.6746 2.99189C22.0461 2.06047 21.1949 1.2994 20.1977 0.777193C19.2005 0.254991 18.0886 -0.0119467 16.9622 0.000410297C15.2417 -0.0119974 13.5857 0.651717 12.3532 1.84765C11.0996 3.0966 10.6642 5.19064 10.6642 6.73125C10.6642 8.47379 11.5124 10.1939 13.1939 11.8691L22.1717 19.9985ZM13.4116 2.90215C14.3634 1.9864 15.6391 1.48124 16.9622 1.49615C18.0254 1.50082 19.0645 1.81186 19.9543 2.39176C20.844 2.97166 21.5463 3.79566 21.9765 4.76435C22.0319 4.90384 22.128 5.02354 22.2525 5.10788C22.377 5.19223 22.5241 5.23733 22.6746 5.23733C22.8252 5.23733 22.9723 5.19223 23.0968 5.10788C23.2212 5.02354 23.3174 4.90384 23.3727 4.76435C23.8075 3.79903 24.511 2.97812 25.3997 2.39888C26.2884 1.81964 27.3252 1.50636 28.3871 1.49615C29.7102 1.48124 30.9859 1.9864 31.9377 2.90215C32.7965 3.99047 33.2382 5.34792 33.1838 6.73125C33.1838 8.06246 32.4857 9.43106 31.142 10.7623L22.6746 18.4354L14.2298 10.7847C12.8636 9.42359 12.1655 8.06246 12.1655 6.73125C12.111 5.34792 12.5528 3.99047 13.4116 2.90215Z" fill="white"/>
</svg>
