<svg width="65" height="97" viewBox="0 0 65 97" fill="none" xmlns="http://www.w3.org/2000/svg">
<path d="M54.9351 7.30132C54.9422 7.22651 54.9422 7.15119 54.9351 7.07638C54.9179 6.78482 54.7935 6.5099 54.5859 6.30447C54.3783 6.09904 54.1021 5.9776 53.8103 5.96351L32.8197 0.0439699C32.6106 -0.0146566 32.3894 -0.0146566 32.1804 0.0439699L11.1897 5.96351C10.8882 5.98163 10.605 6.11432 10.3981 6.33441C10.1912 6.5545 10.0763 6.84535 10.0768 7.14741C10.0697 7.22222 10.0697 7.29754 10.0768 7.37236V12.5934C10.0058 15.4348 10.0058 18.8681 10.0058 21.3543C10.0058 34.3181 18.7193 45.0324 32.1922 48.5842C32.3901 48.6364 32.5981 48.6364 32.796 48.5842C46.2807 45.0324 54.9942 34.3181 54.9942 21.3543V12.5224C54.9942 10.119 54.9232 7.84592 54.9351 7.30132ZM32.5 46.2164C20.2584 42.8659 12.3736 33.1934 12.3736 21.3543V8.04718L32.5 2.41178L52.6264 8.01167V21.3543C52.6264 33.1105 44.7416 42.8185 32.5 46.2164Z" fill="white"/>
<path d="M40.7874 21.3544H36.0518V16.6187C36.0518 16.3047 35.927 16.0036 35.705 15.7816C35.483 15.5595 35.1818 15.4348 34.8679 15.4348H30.1322C29.8182 15.4348 29.5171 15.5595 29.2951 15.7816C29.073 16.0036 28.9483 16.3047 28.9483 16.6187V21.3544H24.2127C23.8987 21.3544 23.5976 21.4791 23.3755 21.7011C23.1535 21.9231 23.0288 22.2243 23.0288 22.5383V27.2739C23.0288 27.5879 23.1535 27.889 23.3755 28.111C23.5976 28.3331 23.8987 28.4578 24.2127 28.4578H28.9483V33.1934C28.9483 33.5074 29.073 33.8085 29.2951 34.0306C29.5171 34.2526 29.8182 34.3773 30.1322 34.3773H34.8679C35.1818 34.3773 35.483 34.2526 35.705 34.0306C35.927 33.8085 36.0518 33.5074 36.0518 33.1934V28.4578H40.7874C41.1014 28.4578 41.4025 28.3331 41.6245 28.111C41.8466 27.889 41.9713 27.5879 41.9713 27.2739V22.5383C41.9713 22.2243 41.8466 21.9231 41.6245 21.7011C41.4025 21.4791 41.1014 21.3544 40.7874 21.3544ZM39.6035 26.09H34.8679C34.5539 26.09 34.2527 26.2147 34.0307 26.4367C33.8087 26.6588 33.6839 26.9599 33.6839 27.2739V32.0095H31.3161V27.2739C31.3161 26.9599 31.1914 26.6588 30.9694 26.4367C30.7473 26.2147 30.4462 26.09 30.1322 26.09H25.3966V23.7222H30.1322C30.4462 23.7222 30.7473 23.5974 30.9694 23.3754C31.1914 23.1534 31.3161 22.8523 31.3161 22.5383V17.8026H33.6839V22.5383C33.6839 22.8523 33.8087 23.1534 34.0307 23.3754C34.2527 23.5974 34.5539 23.7222 34.8679 23.7222H39.6035V26.09Z" fill="white"/>
<path d="M5.13288 78.1913L3.86888 79.4393L2.31688 77.9193L3.83688 76.3993L5.13288 77.6473L6.41288 76.3993L7.96488 77.9193L6.42888 79.4393L5.13288 78.1913ZM10.0929 86.3833C10.1995 86.3833 10.2529 86.4313 10.2529 86.5273V88.4633C10.2529 88.57 10.1995 88.6233 10.0929 88.6233C9.10088 88.6233 8.34354 88.4153 7.82088 87.9993C6.82888 88.5113 5.91154 88.7673 5.06888 88.7673C3.94888 88.7673 3.03154 88.3886 2.31688 87.6313C1.60221 86.874 1.24488 85.93 1.24488 84.7993C1.24488 83.658 1.60221 82.6873 2.31688 81.8873C3.04221 81.0766 3.95954 80.6713 5.06888 80.6713C5.62354 80.6713 6.22088 80.7833 6.86088 81.0073L6.84488 80.0953L8.95688 79.8393L8.97288 85.1353C8.97288 85.5726 9.06354 85.8926 9.24487 86.0953C9.42621 86.2873 9.70888 86.3833 10.0929 86.3833ZM5.06888 86.6553C5.71954 86.666 6.33821 86.5486 6.92488 86.3033C6.88221 85.9406 6.86088 85.642 6.86088 85.4073V83.1033C6.17821 82.8686 5.61288 82.7513 5.16488 82.7513C4.58888 82.7513 4.11954 82.9433 3.75688 83.3273C3.39421 83.7113 3.21288 84.186 3.21288 84.7513C3.21288 85.2953 3.38354 85.7486 3.72488 86.1113C4.07688 86.4633 4.52488 86.6446 5.06888 86.6553ZM10.0938 88.6233C9.98708 88.6233 9.93375 88.57 9.93375 88.4633L9.94975 86.5273C9.94975 86.4313 10.0031 86.3833 10.1098 86.3833H11.4218C12.4564 86.3833 12.9738 85.802 12.9738 84.6393V80.8313L15.0858 80.5753V85.3593C15.0858 87.5353 13.8591 88.6233 11.4058 88.6233H10.0938ZM15.3578 91.0713L13.8218 92.6073L12.5738 91.3913L11.3578 92.6073L9.80575 91.0713L11.3418 89.5513L12.5738 90.7513L13.8058 89.5513L15.3578 91.0713ZM24.8015 86.3833C24.9082 86.3833 24.9615 86.4313 24.9615 86.5273V88.4633C24.9615 88.57 24.9082 88.6233 24.8015 88.6233H23.9695C23.7668 90.9166 21.6442 92.0633 17.6015 92.0633L17.3775 90.3193C18.7855 90.3193 19.8468 90.186 20.5615 89.9193C21.2762 89.6526 21.7028 89.2206 21.8415 88.6233H20.2895C19.1588 88.6233 18.2468 88.266 17.5535 87.5513C16.8708 86.8366 16.5295 85.882 16.5295 84.6873C16.5295 83.5246 16.8922 82.5646 17.6175 81.8073C18.3535 81.0393 19.2708 80.6553 20.3695 80.6553C21.4255 80.6553 22.2895 81.0073 22.9615 81.7113C23.6442 82.4046 23.9855 83.338 23.9855 84.5113V86.3833H24.8015ZM18.4335 84.6233C18.4335 85.2313 18.6202 85.6953 18.9935 86.0153C19.3775 86.3353 19.8788 86.4953 20.4975 86.4953C20.7748 86.4953 21.2335 86.474 21.8735 86.4313V84.6553C21.8735 84.0793 21.7188 83.626 21.4095 83.2953C21.1108 82.9646 20.7055 82.7993 20.1935 82.7993C19.7028 82.7993 19.2868 82.97 18.9455 83.3113C18.6042 83.642 18.4335 84.0793 18.4335 84.6233ZM27.9009 86.3833C28.0075 86.3833 28.0609 86.4313 28.0609 86.5273V88.4633C28.0609 88.57 28.0075 88.6233 27.9009 88.6233H24.7969C24.6902 88.6233 24.6369 88.57 24.6369 88.4633V86.5273C24.6369 86.4313 24.6902 86.3833 24.7969 86.3833H27.9009ZM31.0103 86.3833C31.1169 86.3833 31.1703 86.4313 31.1703 86.5273V88.4633C31.1703 88.57 31.1169 88.6233 31.0103 88.6233H27.9062C27.7996 88.6233 27.7462 88.57 27.7462 88.4633V86.5273C27.7462 86.4313 27.7996 86.3833 27.9062 86.3833H31.0103ZM38.9996 77.7273L37.4636 79.2633L35.9116 77.7273L37.4316 76.2073L38.9996 77.7273ZM46.0076 86.3833C46.1143 86.3833 46.1676 86.4313 46.1676 86.5273V88.4633C46.1676 88.57 46.1143 88.6233 46.0076 88.6233C45.0263 88.6233 44.1836 88.2606 43.4796 87.5353C42.8396 88.2606 41.8423 88.6233 40.4876 88.6233H33.3996H31.0156C30.909 88.6233 30.8556 88.57 30.8556 88.4633V86.5273C30.877 86.4313 30.9303 86.3833 31.0156 86.3833H32.3916L32.3756 80.8313L34.4876 80.5753V82.1593C36.0343 81.4553 37.2396 80.97 38.1036 80.7033C38.9783 80.426 39.8156 80.2873 40.6156 80.2873C41.6823 80.2873 42.5516 80.6286 43.2236 81.3113C43.8956 81.9833 44.2263 82.858 44.2156 83.9353L44.1996 85.3593C44.1996 85.4553 44.189 85.61 44.1676 85.8233C44.7223 86.1966 45.3356 86.3833 46.0076 86.3833ZM42.0876 84.8633V84.1593C42.0876 83.6473 41.9063 83.2366 41.5436 82.9273C41.181 82.618 40.7116 82.4633 40.1356 82.4633C39.4636 82.4633 38.8023 82.5486 38.1516 82.7193C37.5116 82.8793 36.2903 83.274 34.4876 83.9033V86.3833H40.5036C41.005 86.3833 41.3943 86.25 41.6716 85.9833C41.949 85.7166 42.0876 85.3433 42.0876 84.8633ZM55.52 86.3833C55.6267 86.3833 55.68 86.4313 55.68 86.5273V88.4633C55.68 88.57 55.6267 88.6233 55.52 88.6233C53.8133 88.6233 52.3733 88.3033 51.2 87.6633C50.4213 88.026 49.6533 88.2766 48.896 88.4153C48.1493 88.554 47.184 88.6233 46 88.6233C45.8933 88.6126 45.84 88.5593 45.84 88.4633V86.5273C45.84 86.4313 45.8933 86.3833 46 86.3833C46.9173 86.3833 47.7547 86.3353 48.512 86.2393C47.7547 85.3006 47.056 84.2073 46.416 82.9593L47.152 81.1993C48.6347 80.474 49.9573 80.1113 51.12 80.1113C52.2187 80.1113 53.12 80.394 53.824 80.9593C54.5387 81.5246 54.896 82.2553 54.896 83.1513C54.896 84.3033 54.3733 85.3326 53.328 86.2393C53.936 86.3353 54.6667 86.3833 55.52 86.3833ZM50.832 82.1913C50.1493 82.1806 49.3653 82.362 48.48 82.7353C49.1413 84.0686 49.8933 85.1886 50.736 86.0953C51.3973 85.818 51.9147 85.4766 52.288 85.0713C52.672 84.6553 52.864 84.25 52.864 83.8553C52.864 83.3753 52.6773 82.9806 52.304 82.6713C51.9413 82.362 51.4507 82.202 50.832 82.1913ZM55.5781 88.6233C55.4715 88.6233 55.4181 88.57 55.4181 88.4633V86.5273C55.4181 86.4313 55.4768 86.3833 55.5941 86.3833C56.1275 86.3833 56.5168 86.2393 56.7621 85.9513C57.0181 85.6633 57.1461 85.21 57.1461 84.5913L57.1621 77.2153L59.2741 76.9433V85.2953C59.2741 87.514 58.0421 88.6233 55.5781 88.6233ZM61.6836 88.6233V77.2153L63.8116 76.9433V88.6233H61.6836Z" fill="white"/>
</svg>
