<svg width="53" height="49" viewBox="0 0 53 49" fill="none" xmlns="http://www.w3.org/2000/svg">
<path d="M49.3399 27.5687C48.8039 27.3441 48.2286 27.2285 47.6475 27.2285C47.0663 27.2285 46.491 27.3441 45.9551 27.5687L36.3569 31.0245C36.0372 30.0842 35.3651 29.3046 34.4821 28.8498C33.5991 28.3951 32.5741 28.3007 31.623 28.5865L18.9359 31.9476L8.66318 28.4563C8.54099 28.4162 8.41307 28.3962 8.28446 28.3972H5.91747V26.0302C5.91747 25.7163 5.79278 25.4153 5.57083 25.1933C5.34888 24.9714 5.04786 24.8467 4.73398 24.8467H1.18349C0.869612 24.8467 0.568585 24.9714 0.346637 25.1933C0.124689 25.4153 0 25.7163 0 26.0302C0 26.3441 0.124689 26.6451 0.346637 26.867C0.568585 27.089 0.869612 27.2137 1.18349 27.2137H3.55048V46.1496H1.18349C0.869612 46.1496 0.568585 46.2743 0.346637 46.4962C0.124689 46.7182 0 47.0192 0 47.3331C0 47.6469 0.124689 47.948 0.346637 48.1699C0.568585 48.3919 0.869612 48.5166 1.18349 48.5166H4.73398C5.04786 48.5166 5.34888 48.3919 5.57083 48.1699C5.79278 47.948 5.91747 47.6469 5.91747 47.3331V43.7826H8.28446L16.0955 46.4573C20.1642 47.8628 24.624 47.5989 28.4985 45.7235L49.5056 35.6757C50.5213 35.1842 51.3131 34.3262 51.7216 33.2743C52.13 32.2224 52.1248 31.0549 51.7069 30.0067C51.4929 29.4641 51.1736 28.9693 50.7673 28.5508C50.3611 28.1324 49.8759 27.7986 49.3399 27.5687ZM48.5233 33.5454L27.5162 43.6051C25.8691 44.4045 24.0806 44.8713 22.2529 44.979C20.4253 45.0866 18.5943 44.8329 16.8648 44.2323L8.88804 41.4866C8.75844 41.4421 8.62266 41.4181 8.48565 41.4156H5.91747V30.7642H8.0951L18.5572 34.3146C18.781 34.3824 19.0198 34.3824 19.2436 34.3146L32.262 30.7642C32.6122 30.6656 32.9863 30.6974 33.3148 30.8536C33.6433 31.0099 33.9041 31.28 34.0486 31.6139C34.1931 31.9477 34.2116 32.3227 34.1007 32.6691C33.9898 33.0156 33.7571 33.3101 33.4455 33.498L23.1491 37.9006C22.9908 37.9495 22.8445 38.0311 22.7196 38.1401C22.5948 38.2492 22.4943 38.3832 22.4246 38.5335C22.3548 38.6839 22.3175 38.8472 22.3149 39.0129C22.3123 39.1786 22.3445 39.343 22.4095 39.4955C22.4745 39.648 22.5708 39.7851 22.6921 39.898C22.8134 40.0109 22.9571 40.097 23.1139 40.1508C23.2706 40.2046 23.437 40.2249 23.602 40.2104C23.7671 40.1959 23.9273 40.1468 24.0723 40.0664L34.4397 35.6401H34.5462C35.386 35.1689 36.0192 34.4006 36.3214 33.4862L46.748 29.7345C47.2534 29.4991 47.8315 29.4741 48.3553 29.665C48.8791 29.8558 49.3056 30.247 49.5411 30.7523C49.7765 31.2577 49.8015 31.8358 49.6106 32.3596C49.4197 32.8834 49.0286 33.31 48.5233 33.5454Z" fill="white"/>
<path d="M26.818 0.289212C26.6028 0.102683 26.3276 0 26.0428 0C25.758 0 25.4828 0.102683 25.2676 0.289212C24.8534 0.64426 15.3854 9.01156 15.3854 16.5623C15.4881 19.3544 16.6433 22.0044 18.619 23.9801C20.5947 25.9558 23.2447 27.111 26.0369 27.2137C28.8291 27.111 31.479 25.9558 33.4547 23.9801C35.4305 22.0044 36.5856 19.3544 36.6883 16.5623C36.6883 9.01156 27.2204 0.64426 26.818 0.289212ZM26.0369 24.8467C23.8749 24.738 21.8303 23.8303 20.2996 22.2996C18.7689 20.7689 17.8612 18.7243 17.7524 16.5623C17.7524 11.2247 23.8474 4.893 26.0369 2.78638C28.2382 4.893 34.3213 11.2129 34.3213 16.5623C34.2126 18.7243 33.3049 20.7689 31.7742 22.2996C30.2435 23.8303 28.1989 24.738 26.0369 24.8467Z" fill="white"/>
<path d="M24.8533 11.8283V14.1953H22.4864C22.1725 14.1953 21.8714 14.3199 21.6495 14.5419C21.4275 14.7638 21.3029 15.0649 21.3029 15.3788C21.3029 15.6926 21.4275 15.9937 21.6495 16.2156C21.8714 16.4376 22.1725 16.5622 22.4864 16.5622H24.8533V18.9292C24.8533 19.2431 24.978 19.5441 25.2 19.7661C25.4219 19.988 25.723 20.1127 26.0368 20.1127C26.3507 20.1127 26.6517 19.988 26.8737 19.7661C27.0956 19.5441 27.2203 19.2431 27.2203 18.9292V16.5622H29.5873C29.9012 16.5622 30.2022 16.4376 30.4242 16.2156C30.6461 15.9937 30.7708 15.6926 30.7708 15.3788C30.7708 15.0649 30.6461 14.7638 30.4242 14.5419C30.2022 14.3199 29.9012 14.1953 29.5873 14.1953H27.2203V11.8283C27.2203 11.5144 27.0956 11.2134 26.8737 10.9914C26.6517 10.7695 26.3507 10.6448 26.0368 10.6448C25.723 10.6448 25.4219 10.7695 25.2 10.9914C24.978 11.2134 24.8533 11.5144 24.8533 11.8283Z" fill="white"/>
</svg>
