<svg width="45" height="48" viewBox="0 0 45 48" fill="none" xmlns="http://www.w3.org/2000/svg">
<path d="M11.8333 0H7.09998C6.78614 0 6.48515 0.124672 6.26324 0.346589C6.04132 0.568507 5.91665 0.869491 5.91665 1.18333V2.36666H3.54999C2.60847 2.36666 1.70552 2.74068 1.03977 3.40643C0.374016 4.07218 0 4.97513 0 5.91665V43.7832C0 44.7247 0.374016 45.6277 1.03977 46.2934C1.70552 46.9592 2.60847 47.3332 3.54999 47.3332H41.4165C42.3581 47.3332 43.261 46.9592 43.9268 46.2934C44.5925 45.6277 44.9665 44.7247 44.9665 43.7832V5.91665C44.9665 4.97513 44.5925 4.07218 43.9268 3.40643C43.261 2.74068 42.3581 2.36666 41.4165 2.36666H39.0499V1.18333C39.0499 0.869491 38.9252 0.568507 38.7033 0.346589C38.4814 0.124672 38.1804 0 37.8665 0H33.1332C32.8194 0 32.5184 0.124672 32.2965 0.346589C32.0746 0.568507 31.9499 0.869491 31.9499 1.18333V2.36666H13.0166V1.18333C13.0166 0.869491 12.892 0.568507 12.67 0.346589C12.4481 0.124672 12.1471 0 11.8333 0ZM8.28331 2.36666H10.65V7.09998H8.28331V2.36666ZM3.54999 44.9665C3.23615 44.9665 2.93517 44.8419 2.71325 44.6199C2.49133 44.398 2.36666 44.097 2.36666 43.7832V37.1684L10.1648 44.9665H3.54999ZM11.8333 43.298L4.03515 35.4999H10.7801C11.0626 35.4999 11.3335 35.6121 11.5332 35.8118C11.7329 36.0115 11.8451 36.2824 11.8451 36.5649L11.8333 43.298ZM42.5999 43.7832C42.5999 44.097 42.4752 44.398 42.2533 44.6199C42.0314 44.8419 41.7304 44.9665 41.4165 44.9665H14.2V36.5649C14.2 35.6548 13.8384 34.7819 13.1948 34.1383C12.5513 33.4948 11.6784 33.1332 10.7683 33.1332H2.36666V14.2H42.5999V43.7832ZM34.3166 2.36666H36.6832V7.09998H34.3166V2.36666ZM31.9499 4.73332V8.28331C31.9499 8.59715 32.0746 8.89813 32.2965 9.12005C32.5184 9.34197 32.8194 9.46664 33.1332 9.46664H37.8665C38.1804 9.46664 38.4814 9.34197 38.7033 9.12005C38.9252 8.89813 39.0499 8.59715 39.0499 8.28331V4.73332H41.4165C41.7304 4.73332 42.0314 4.85799 42.2533 5.07991C42.4752 5.30183 42.5999 5.60281 42.5999 5.91665V11.8333H2.36666V5.91665C2.36666 5.60281 2.49133 5.30183 2.71325 5.07991C2.93517 4.85799 3.23615 4.73332 3.54999 4.73332H5.91665V8.28331C5.91665 8.59715 6.04132 8.89813 6.26324 9.12005C6.48515 9.34197 6.78614 9.46664 7.09998 9.46664H11.8333C12.1471 9.46664 12.4481 9.34197 12.67 9.12005C12.892 8.89813 13.0166 8.59715 13.0166 8.28331V4.73332H31.9499Z" fill="white"/>
<path d="M15.3833 31.9499H18.9333V35.4999C18.9333 35.8137 19.058 36.1147 19.2799 36.3366C19.5018 36.5585 19.8028 36.6832 20.1167 36.6832H24.85C25.1638 36.6832 25.4648 36.5585 25.6867 36.3366C25.9086 36.1147 26.0333 35.8137 26.0333 35.4999V31.9499H29.5833C29.8971 31.9499 30.1981 31.8252 30.42 31.6033C30.642 31.3814 30.7666 31.0804 30.7666 30.7665V26.0332C30.7666 25.7194 30.642 25.4184 30.42 25.1965C30.1981 24.9746 29.8971 24.8499 29.5833 24.8499H26.0333V21.2999C26.0333 20.9861 25.9086 20.6851 25.6867 20.4632C25.4648 20.2412 25.1638 20.1166 24.85 20.1166H20.1167C19.8028 20.1166 19.5018 20.2412 19.2799 20.4632C19.058 20.6851 18.9333 20.9861 18.9333 21.2999V24.8499H15.3833C15.0695 24.8499 14.7685 24.9746 14.5466 25.1965C14.3247 25.4184 14.2 25.7194 14.2 26.0332V30.7665C14.2 31.0804 14.3247 31.3814 14.5466 31.6033C14.7685 31.8252 15.0695 31.9499 15.3833 31.9499ZM16.5667 27.2166H20.1167C20.4305 27.2166 20.7315 27.0919 20.9534 26.87C21.1753 26.648 21.3 26.3471 21.3 26.0332V22.4832H23.6666V26.0332C23.6666 26.3471 23.7913 26.648 24.0132 26.87C24.2352 27.0919 24.5361 27.2166 24.85 27.2166H28.4V29.5832H24.85C24.5361 29.5832 24.2352 29.7079 24.0132 29.9298C23.7913 30.1517 23.6666 30.4527 23.6666 30.7665V34.3165H21.3V30.7665C21.3 30.4527 21.1753 30.1517 20.9534 29.9298C20.7315 29.7079 20.4305 29.5832 20.1167 29.5832H16.5667V27.2166Z" fill="white"/>
</svg>
