<svg width="50" height="49" viewBox="0 0 50 49" fill="none" xmlns="http://www.w3.org/2000/svg">
<path d="M15.8986 43.5651L23.3272 47.102C24.5345 47.7366 25.878 48.0682 27.2419 48.0682C28.6058 48.0682 29.9492 47.7366 31.1565 47.102L45.968 41.8596H46.0939C49.0699 40.3716 49.6537 37.7046 48.944 35.8503C48.4959 34.8104 47.6637 33.9836 46.6209 33.5422C45.5782 33.1008 44.4053 33.0788 43.3468 33.4809L31.3282 37.7046C30.9356 37.8643 30.4961 37.8643 30.1034 37.7046L29.1648 37.2811C29.3658 36.5221 29.3135 35.7183 29.016 34.9918C28.8344 34.5524 28.5667 34.1539 28.2285 33.8197C27.8904 33.4855 27.4887 33.2224 27.0473 33.0459L18.5427 29.1542C17.7439 28.8334 16.8961 28.6514 16.036 28.6162C15.02 28.5793 14.0072 28.7507 13.0599 29.1199L8.85914 30.9055L0.995543 32.0501C0.845228 32.0712 0.70053 32.1216 0.569711 32.1986C0.438892 32.2755 0.324512 32.3775 0.233104 32.4987C0.141696 32.6199 0.075049 32.7578 0.0369682 32.9048C-0.00111255 33.0517 -0.00988104 33.2047 0.011163 33.355C0.0322071 33.5053 0.0826517 33.65 0.159617 33.7808C0.236582 33.9117 0.33856 34.026 0.459729 34.1174C0.580898 34.2088 0.718885 34.2755 0.865811 34.3136C1.01274 34.3517 1.16572 34.3604 1.31604 34.3394L9.32843 33.1947C9.4269 33.1806 9.52309 33.1537 9.61459 33.1146L13.9413 31.2489C15.1431 30.8134 16.4595 30.8134 17.6613 31.2489L26.1545 35.1292C26.3208 35.1918 26.4726 35.2878 26.6006 35.4112C26.7285 35.5346 26.8299 35.6828 26.8985 35.8468C26.9671 36.0108 27.0014 36.1871 26.9995 36.3648C26.9975 36.5426 26.9592 36.718 26.887 36.8805C26.7955 37.1215 26.641 37.3335 26.4397 37.4946C26.2384 37.6556 25.9976 37.7598 25.7424 37.7962C25.5441 37.7976 25.3469 37.7667 25.1586 37.7046L17.4896 35.484C17.1861 35.402 16.8624 35.444 16.5897 35.6007C16.3171 35.7574 16.1179 36.016 16.036 36.3196C15.954 36.6232 15.996 36.9469 16.1527 37.2195C16.3094 37.4921 16.568 37.6913 16.8715 37.7733L24.6092 39.9252C24.9807 40.0378 25.3658 40.0994 25.7538 40.1083H25.9255C26.6795 40.0457 27.3917 39.7359 27.9515 39.2269L29.1534 39.7764C29.6227 39.984 30.1284 40.0968 30.6414 40.1083C31.1455 40.1247 31.6478 40.0391 32.118 39.8565L44.045 35.6557C44.5465 35.4291 45.1169 35.409 45.6331 35.5996C46.1493 35.7902 46.5697 36.1763 46.8036 36.6744C47.1698 37.613 46.8036 38.9637 45.1324 39.7878L30.3324 44.9959H30.2064C29.3062 45.4818 28.2992 45.7361 27.2762 45.7361C26.2532 45.7361 25.2462 45.4818 24.346 44.9959L16.5281 41.3216C16.2961 41.2123 16.0341 41.1841 15.7841 41.2415L0.903973 44.6754C0.604952 44.7422 0.34471 44.925 0.180495 45.1837C0.0162807 45.4423 -0.0384538 45.7556 0.0283326 46.0546C0.0951189 46.3537 0.277955 46.6139 0.53662 46.7781C0.795284 46.9423 1.10859 46.9971 1.40761 46.9303L15.8986 43.5651Z" fill="white"/>
<path d="M27.86 30.608C28.071 30.801 28.3466 30.9081 28.6326 30.9081C28.9186 30.9081 29.1942 30.801 29.4052 30.608L43.1407 18.1315C45.6475 15.6019 46.9409 12.9693 46.9409 10.3023C46.9409 7.94435 46.277 4.72794 44.3655 2.81641C42.4842 0.990202 39.9593 -0.0214219 37.3375 0.000627966C35.6198 -0.0182846 33.9243 0.390268 32.4038 1.18951C30.8832 1.98874 29.5853 3.15358 28.6269 4.57914C27.6684 3.15358 26.3705 1.98874 24.8499 1.18951C23.3294 0.390268 21.6339 -0.0182846 19.9162 0.000627966C17.2928 -0.0183622 14.7677 0.997463 12.8882 2.82786C10.9767 4.73939 10.3128 7.94435 10.3128 10.3023C10.3128 12.9693 11.6062 15.6019 14.1702 18.1659L27.86 30.608ZM14.5021 4.44178C15.9535 3.04022 17.8987 2.26706 19.9162 2.28988C21.5375 2.29702 23.122 2.77308 24.4787 3.66063C25.8354 4.54818 26.9064 5.80931 27.5623 7.29191C27.6467 7.50541 27.7934 7.6886 27.9832 7.81769C28.173 7.94679 28.3973 8.01582 28.6269 8.01582C28.8564 8.01582 29.0807 7.94679 29.2705 7.81769C29.4603 7.6886 29.607 7.50541 29.6914 7.29191C30.3544 5.81447 31.427 4.55805 32.7821 3.67152C34.1373 2.78499 35.7182 2.30551 37.3375 2.28988C39.355 2.26706 41.3002 3.04022 42.7516 4.44178C44.0611 6.10748 44.7347 8.18507 44.6516 10.3023C44.6516 12.3397 43.5871 14.4344 41.5383 16.4718L28.6269 28.2157L15.7498 16.5062C13.6666 14.4229 12.6021 12.3397 12.6021 10.3023C12.519 8.18507 13.1926 6.10748 14.5021 4.44178Z" fill="white"/>
</svg>
