<svg width="38" height="16" viewBox="0 0 38 16" fill="none" xmlns="http://www.w3.org/2000/svg">
<path d="M14.7727 4.54546H11.3636V1.13636C11.3636 0.834982 11.2439 0.545942 11.0308 0.332833C10.8177 0.119723 10.5287 0 10.2273 0H5.68182C5.38044 0 5.0914 0.119723 4.87829 0.332833C4.66518 0.545942 4.54546 0.834982 4.54546 1.13636V4.54546H1.13636C0.834982 4.54546 0.545943 4.66518 0.332834 4.87829C0.119724 5.0914 0 5.38044 0 5.68182V10.2273C0 10.5287 0.119724 10.8177 0.332834 11.0308C0.545943 11.2439 0.834982 11.3636 1.13636 11.3636H4.54546V14.7727C4.54546 15.0741 4.66518 15.3632 4.87829 15.5763C5.0914 15.7894 5.38044 15.9091 5.68182 15.9091H10.2273C10.5287 15.9091 10.8177 15.7894 11.0308 15.5763C11.2439 15.3632 11.3636 15.0741 11.3636 14.7727V11.3636H14.7727C15.0741 11.3636 15.3632 11.2439 15.5763 11.0308C15.7894 10.8177 15.9091 10.5287 15.9091 10.2273V5.68182C15.9091 5.38044 15.7894 5.0914 15.5763 4.87829C15.3632 4.66518 15.0741 4.54546 14.7727 4.54546ZM13.6364 9.09091H10.2273C9.9259 9.09091 9.63686 9.21064 9.42375 9.42375C9.21064 9.63686 9.09091 9.9259 9.09091 10.2273V13.6364H6.81819V10.2273C6.81819 9.9259 6.69846 9.63686 6.48535 9.42375C6.27224 9.21064 5.9832 9.09091 5.68182 9.09091H2.27273V6.81819H5.68182C5.9832 6.81819 6.27224 6.69846 6.48535 6.48535C6.69846 6.27224 6.81819 5.9832 6.81819 5.68182V2.27273H9.09091V5.68182C9.09091 5.9832 9.21064 6.27224 9.42375 6.48535C9.63686 6.69846 9.9259 6.81819 10.2273 6.81819H13.6364V9.09091ZM36.3637 0H21.5909C21.2895 0 21.0005 0.119723 20.7874 0.332833C20.5743 0.545942 20.4546 0.834982 20.4546 1.13636C20.4546 1.43775 20.5743 1.72679 20.7874 1.9399C21.0005 2.15301 21.2895 2.27273 21.5909 2.27273H36.3637C36.665 2.27273 36.9541 2.15301 37.1672 1.9399C37.3803 1.72679 37.5 1.43775 37.5 1.13636C37.5 0.834982 37.3803 0.545942 37.1672 0.332833C36.9541 0.119723 36.665 0 36.3637 0ZM36.3637 4.54546H21.5909C21.2895 4.54546 21.0005 4.66518 20.7874 4.87829C20.5743 5.0914 20.4546 5.38044 20.4546 5.68182C20.4546 5.9832 20.5743 6.27224 20.7874 6.48535C21.0005 6.69846 21.2895 6.81819 21.5909 6.81819H36.3637C36.665 6.81819 36.9541 6.69846 37.1672 6.48535C37.3803 6.27224 37.5 5.9832 37.5 5.68182C37.5 5.38044 37.3803 5.0914 37.1672 4.87829C36.9541 4.66518 36.665 4.54546 36.3637 4.54546ZM36.3637 9.09091H21.5909C21.2895 9.09091 21.0005 9.21064 20.7874 9.42375C20.5743 9.63686 20.4546 9.9259 20.4546 10.2273C20.4546 10.5287 20.5743 10.8177 20.7874 11.0308C21.0005 11.2439 21.2895 11.3636 21.5909 11.3636H36.3637C36.665 11.3636 36.9541 11.2439 37.1672 11.0308C37.3803 10.8177 37.5 10.5287 37.5 10.2273C37.5 9.9259 37.3803 9.63686 37.1672 9.42375C36.9541 9.21064 36.665 9.09091 36.3637 9.09091ZM29.5455 13.6364H21.5909C21.2895 13.6364 21.0005 13.7561 20.7874 13.9692C20.5743 14.1823 20.4546 14.4714 20.4546 14.7727C20.4546 15.0741 20.5743 15.3632 20.7874 15.5763C21.0005 15.7894 21.2895 15.9091 21.5909 15.9091H29.5455C29.8469 15.9091 30.1359 15.7894 30.349 15.5763C30.5621 15.3632 30.6818 15.0741 30.6818 14.7727C30.6818 14.4714 30.5621 14.1823 30.349 13.9692C30.1359 13.7561 29.8469 13.6364 29.5455 13.6364Z" fill="white"/>
</svg>
